<svg width="696" height="184" viewBox="0 0 696 184" fill="none" xmlns="http://www.w3.org/2000/svg">
<g clip-path="url(#clip0_169_121)">
<g clip-path="url(#clip1_169_121)">
<path d="M173.171 0H87.3045C79.5377 0 73.353 6.08615 73.353 13.5877V83.5077H173.027C180.65 83.5077 186.834 77.4215 186.834 69.92V13.5877C186.978 6.08615 180.794 0 173.171 0Z" fill="#92C83E"/>
<path d="M103.701 48.4062C107.434 48.4062 110.461 45.4278 110.461 41.7539C110.461 38.0799 107.434 35.1016 103.701 35.1016C99.9675 35.1016 96.9409 38.0799 96.9409 41.7539C96.9409 45.4278 99.9675 48.4062 103.701 48.4062Z" fill="white"/>
<path d="M130.165 48.4062C133.899 48.4062 136.925 45.4278 136.925 41.7539C136.925 38.0799 133.899 35.1016 130.165 35.1016C126.432 35.1016 123.405 38.0799 123.405 41.7539C123.405 45.4278 126.432 48.4062 130.165 48.4062Z" fill="white"/>
<path d="M156.63 48.4062C160.364 48.4062 163.39 45.4278 163.39 41.7539C163.39 38.0799 160.364 35.1016 156.63 35.1016C152.897 35.1016 149.87 38.0799 149.87 41.7539C149.87 45.4278 152.897 48.4062 156.63 48.4062Z" fill="white"/>
<path d="M14.2392 99.643C6.6163 99.643 0.431641 105.729 0.431641 113.231V170.271C0.431641 177.772 6.6163 183.858 14.2392 183.858H100.105C107.728 183.858 113.913 177.772 113.913 170.271V99.5015H14.2392V99.643Z" fill="#FBB03B"/>
<path d="M30.6355 148.474C34.3689 148.474 37.3954 145.495 37.3954 141.821C37.3954 138.148 34.3689 135.169 30.6355 135.169C26.902 135.169 23.8755 138.148 23.8755 141.821C23.8755 145.495 26.902 148.474 30.6355 148.474Z" fill="white"/>
<path d="M57.1003 148.474C60.8337 148.474 63.8603 145.495 63.8603 141.821C63.8603 138.148 60.8337 135.169 57.1003 135.169C53.3669 135.169 50.3403 138.148 50.3403 141.821C50.3403 145.495 53.3669 148.474 57.1003 148.474Z" fill="white"/>
<path d="M83.5647 148.474C87.2981 148.474 90.3246 145.495 90.3246 141.821C90.3246 138.148 87.2981 135.169 83.5647 135.169C79.8312 135.169 76.8047 138.148 76.8047 141.821C76.8047 145.495 79.8312 148.474 83.5647 148.474Z" fill="white"/>
<path d="M57.1002 55.4831V83.6492H28.622C12.8008 83.6492 0 71.0523 0 55.4831C0 39.9138 12.8008 27.3169 28.622 27.3169C44.4432 27.3169 57.1002 40.0554 57.1002 55.4831Z" fill="#ED1E79"/>
<path d="M129.878 127.809V99.6431H158.5C174.321 99.6431 187.122 112.24 187.122 127.809C187.122 143.378 174.321 155.975 158.5 155.975C142.679 155.975 129.878 143.237 129.878 127.809Z" fill="#3FA9F5"/>
</g>
<g clip-path="url(#clip2_169_121)">
<g clip-path="url(#clip3_169_121)">
<path d="M250.289 62.3716H230.83C228.628 62.3716 226.927 62.9525 225.756 64.1142C224.585 65.2759 224 66.9632 224 69.1484V125.797C224 127.982 224.585 129.669 225.756 130.831C226.927 131.993 228.628 132.574 230.83 132.574H250.289C256.255 132.574 261.524 131.799 266.096 130.223C270.668 128.674 274.57 126.378 277.749 123.39C280.927 120.403 283.324 116.724 284.969 112.382C286.614 108.039 287.422 103.032 287.422 97.3896C287.422 86.1042 284.188 77.4465 277.749 71.3889C271.281 65.3866 262.137 62.3716 250.289 62.3716ZM272.48 108.233C271.476 111.33 269.943 113.875 267.908 115.894C265.873 117.914 263.336 119.435 260.269 120.486C257.23 121.509 253.634 122.035 249.48 122.035H236.824V72.9102H249.48C257.649 72.9102 263.754 74.9294 267.852 78.9955C271.922 83.0339 273.985 89.1745 273.985 97.4173C273.985 101.539 273.483 105.135 272.48 108.233Z" fill="white"/>
<path d="M330.438 66.9355C329.574 64.9992 328.515 63.6439 327.288 62.8141C326.061 61.9842 324.667 61.5693 323.134 61.5693C321.601 61.5693 320.095 61.9842 318.869 62.8141C317.642 63.6439 316.583 65.0269 315.719 66.9355L289.235 125.188C288.566 126.71 288.343 128.093 288.538 129.31C288.733 130.527 289.318 131.522 290.294 132.242C291.27 132.961 292.552 133.348 294.169 133.348C295.897 133.348 297.236 132.905 298.183 132.048C299.131 131.191 300.023 129.78 300.888 127.871L305.822 116.309H340.335L345.353 127.871C346.161 129.725 347.081 131.108 348.113 131.993C349.144 132.878 350.594 133.348 352.489 133.348C354.023 133.348 355.277 132.988 356.197 132.297C357.145 131.605 357.703 130.61 357.898 129.365C358.093 128.093 357.842 126.71 357.089 125.188L330.438 66.9355ZM322.911 76.2017H323.106L335.902 106.186H310.199L322.911 76.2017Z" fill="white"/>
<path d="M408.579 96.3379C411.534 95.2315 413.959 93.5718 415.855 91.3314C418.336 88.3994 419.563 84.8312 419.563 80.5715C419.563 76.782 418.643 73.5457 416.803 70.8073C414.963 68.0966 412.315 65.9944 408.83 64.5284C405.345 63.0624 401.136 62.3433 396.173 62.3433H372.087C369.885 62.3433 368.184 62.9241 367.013 64.0859C365.842 65.2476 365.257 66.9349 365.257 69.1201V125.769C365.257 127.954 365.842 129.641 367.013 130.803C368.184 131.964 369.885 132.545 372.087 132.545H397.289C404.843 132.545 410.754 130.83 414.991 127.428C419.228 123.998 421.375 119.185 421.375 112.934C421.375 108.149 420.009 104.276 417.249 101.289C415.075 98.9103 412.147 97.2783 408.579 96.3379ZM377.607 72.0244H393.971C398.376 72.0244 401.693 72.8819 403.868 74.5692C406.042 76.2564 407.129 78.7735 407.129 82.0928C407.129 85.412 406.042 87.9291 403.868 89.6164C401.693 91.3037 398.404 92.1612 393.971 92.1612H377.607V72.0244ZM405.708 120.264C403.561 122.034 400.216 122.892 395.672 122.892H377.607V101.787H395.672C400.216 101.787 403.561 102.644 405.708 104.387C407.854 106.102 408.914 108.757 408.914 112.353C408.914 115.949 407.854 118.522 405.708 120.264Z" fill="white"/>
<path d="M471.862 83.0886C469.854 83.0886 468.321 83.6142 467.234 84.6376C466.174 85.661 465.617 87.2377 465.617 89.3675V111.275C465.617 115.064 464.558 118.107 462.411 120.375C460.264 122.671 457.532 123.805 454.187 123.805C451.12 123.805 448.862 122.975 447.468 121.315C446.075 119.656 445.35 117.111 445.35 113.653V89.3675C445.35 87.2377 444.792 85.661 443.705 84.6376C442.59 83.6142 441.057 83.0886 439.049 83.0886C437.042 83.0886 435.509 83.6142 434.422 84.6376C433.362 85.661 432.805 87.2377 432.805 89.3675V113.46C432.805 117.913 433.446 121.62 434.756 124.607C436.066 127.594 438.046 129.835 440.722 131.328C443.398 132.822 446.771 133.569 450.87 133.569C454.968 133.569 458.118 132.601 460.961 130.692C462.996 129.309 464.641 127.511 465.924 125.298V127.013C465.924 129.06 466.453 130.637 467.54 131.743C468.6 132.85 470.105 133.375 472.057 133.375C476.127 133.375 478.19 131.245 478.19 127.013V89.3675C478.19 87.2377 477.632 85.661 476.545 84.6376C475.43 83.6142 473.897 83.0886 471.889 83.0886H471.862Z" fill="white"/>
<path d="M530.852 85.9658C527.646 83.9189 523.854 82.8678 519.506 82.8678C515.435 82.8678 511.839 83.8636 508.773 85.8552C506.57 87.2658 504.925 89.0084 503.755 91.083V67.8482C503.755 65.8014 503.197 64.2247 502.11 63.1736C501.022 62.1225 499.461 61.5693 497.454 61.5693C495.447 61.5693 493.914 62.0949 492.826 63.1736C491.767 64.2247 491.209 65.8014 491.209 67.8482V126.986C491.209 129.033 491.739 130.61 492.826 131.716C493.886 132.823 495.447 133.348 497.454 133.348C499.461 133.348 500.911 132.795 501.97 131.716C503.03 130.61 503.587 129.033 503.587 126.986V124.912C504.73 127.124 506.403 128.978 508.661 130.471C511.783 132.518 515.407 133.569 519.561 133.569C523.715 133.569 527.618 132.546 530.852 130.471C534.086 128.424 536.623 125.465 538.435 121.648C540.247 117.831 541.139 113.322 541.139 108.149C541.139 102.977 540.247 98.413 538.435 94.6512C536.623 90.8894 534.113 87.985 530.908 85.9381L530.852 85.9658ZM526.893 116.973C525.862 119.324 524.412 121.094 522.516 122.312C520.621 123.529 518.474 124.109 515.993 124.109C512.257 124.109 509.246 122.754 506.96 120.071C504.674 117.388 503.559 113.405 503.559 108.177C503.559 104.664 504.089 101.732 505.121 99.3534C506.152 97.0023 507.602 95.232 509.497 94.0703C511.365 92.9086 513.54 92.3277 516.021 92.3277C519.756 92.3277 522.767 93.6277 525.053 96.2555C527.339 98.8832 528.454 102.839 528.454 108.149C528.454 111.662 527.925 114.594 526.893 116.973Z" fill="white"/>
<path d="M591.068 85.9658C587.862 83.9189 584.07 82.8678 579.721 82.8678C575.651 82.8678 572.055 83.8636 568.988 85.8552C566.786 87.2658 565.141 89.0084 563.97 91.083V67.8482C563.97 65.8014 563.413 64.2247 562.326 63.1736C561.238 62.1225 559.677 61.5693 557.67 61.5693C555.663 61.5693 554.129 62.0949 553.042 63.1736C551.983 64.2247 551.425 65.8014 551.425 67.8482V126.986C551.425 129.033 551.955 130.61 553.042 131.716C554.102 132.823 555.663 133.348 557.67 133.348C559.677 133.348 561.127 132.795 562.186 131.716C563.246 130.61 563.803 129.033 563.803 126.986V124.912C564.946 127.124 566.619 128.978 568.877 130.471C571.999 132.518 575.623 133.569 579.777 133.569C583.931 133.569 587.834 132.546 591.068 130.471C594.301 128.424 596.838 125.465 598.65 121.648C600.462 117.831 601.355 113.322 601.355 108.149C601.355 102.977 600.462 98.413 598.65 94.6512C596.838 90.8894 594.329 87.985 591.123 85.9381L591.068 85.9658ZM587.109 116.973C586.077 119.324 584.628 121.094 582.732 122.312C580.836 123.529 578.69 124.109 576.209 124.109C572.473 124.109 569.462 122.754 567.176 120.071C564.89 117.388 563.775 113.405 563.775 108.177C563.775 104.664 564.305 101.732 565.336 99.3534C566.368 97.0023 567.817 95.232 569.713 94.0703C571.581 92.9086 573.755 92.3277 576.237 92.3277C579.972 92.3277 582.983 93.6277 585.269 96.2555C587.555 98.8832 588.67 102.839 588.67 108.149C588.67 111.662 588.14 114.594 587.109 116.973Z" fill="white"/>
<path d="M634.641 123.114C634.167 123.169 633.693 123.224 633.247 123.252C632.773 123.28 632.271 123.307 631.742 123.307C629.344 123.307 627.476 122.588 626.166 121.122C624.856 119.656 624.215 117.416 624.215 114.345V67.8482C624.215 65.8014 623.657 64.2247 622.57 63.1736C621.483 62.1225 619.922 61.5693 617.914 61.5693C615.907 61.5693 614.374 62.0949 613.287 63.1736C612.227 64.2247 611.67 65.8014 611.67 67.8482V114.954C611.67 121.067 613.064 125.686 615.879 128.839C618.695 131.993 622.877 133.569 628.424 133.569C629.149 133.569 629.902 133.542 630.627 133.459C631.351 133.403 632.076 133.32 632.745 133.265C634.279 133.071 635.394 132.491 636.063 131.578C636.732 130.637 637.066 129.365 637.066 127.705C637.066 125.769 636.899 124.497 636.565 123.861C636.23 123.224 635.589 122.975 634.669 123.114H634.641Z" fill="white"/>
<path d="M683.315 120.182C682.256 120.071 681.001 120.431 679.608 121.233C677.656 122.284 675.621 123.031 673.447 123.473C671.272 123.916 669.321 124.11 667.564 124.11C662.546 124.11 658.755 122.754 656.162 120.071C654.127 117.941 652.928 114.926 652.51 111.054H682.814C684.347 111.054 685.546 110.75 686.382 110.113C687.218 109.477 687.636 108.564 687.636 107.375C687.636 103.585 687.107 100.183 686.075 97.1683C685.044 94.1533 683.538 91.5809 681.559 89.451C679.58 87.3212 677.21 85.6892 674.422 84.5828C671.635 83.4487 668.512 82.8955 665.027 82.8955C660.288 82.8955 656.051 83.9743 652.343 86.1318C648.635 88.2893 645.708 91.2489 643.617 95.0384C641.499 98.8279 640.467 103.226 640.467 108.288C640.467 113.35 641.554 117.941 643.729 121.731C645.903 125.52 648.998 128.425 653.012 130.499C657.026 132.546 661.821 133.597 667.369 133.597C669.99 133.597 672.805 133.237 675.844 132.546C678.883 131.854 681.587 130.776 683.929 129.31C685.127 128.59 685.992 127.705 686.493 126.71C686.995 125.714 687.19 124.746 687.051 123.778C686.912 122.809 686.521 122.007 685.908 121.343C685.267 120.68 684.43 120.292 683.343 120.209L683.315 120.182ZM658.365 93.2958C660.344 91.9958 662.741 91.3596 665.529 91.3596C668.066 91.3596 670.185 91.9128 671.913 92.9916C673.614 94.098 674.924 95.6746 675.816 97.7215C676.569 99.4364 676.987 101.511 677.126 103.89H652.51C652.761 102.009 653.179 100.266 653.848 98.7726C654.88 96.4214 656.385 94.5959 658.365 93.2958Z" fill="white"/>
</g>
</g>
</g>
<defs>
<clipPath id="clip0_169_121">
<rect width="696" height="184" fill="white"/>
</clipPath>
<clipPath id="clip1_169_121">
<rect width="186.978" height="184" fill="white"/>
</clipPath>
<clipPath id="clip2_169_121">
<rect width="470" height="105" fill="white" transform="translate(226 45)"/>
</clipPath>
<clipPath id="clip3_169_121">
<rect width="472" height="72" fill="white" transform="translate(224 61.5693)"/>
</clipPath>
</defs>
</svg>
