<svg width="24" height="25" viewBox="0 0 24 25" fill="none" xmlns="http://www.w3.org/2000/svg">
<mask id="mask0_28424_14000" style="mask-type:alpha" maskUnits="userSpaceOnUse" x="0" y="0" width="24" height="25">
<rect y="0.143555" width="24" height="24" fill="#D9D9D9"/>
</mask>
<g mask="url(#mask0_28424_14000)">
<path d="M10.875 19.4436L4.275 12.8436C4.175 12.7436 4.104 12.6353 4.062 12.5186C4.02067 12.402 4 12.277 4 12.1436C4 12.0103 4.02067 11.8853 4.062 11.7686C4.104 11.652 4.175 11.5436 4.275 11.4436L10.875 4.84364C11.0583 4.6603 11.2873 4.5643 11.562 4.55564C11.8373 4.54764 12.075 4.64364 12.275 4.84364C12.475 5.02697 12.5793 5.25597 12.588 5.53064C12.596 5.80597 12.5 6.04364 12.3 6.24364L7.4 11.1436H18.575C18.8583 11.1436 19.096 11.2393 19.288 11.4306C19.4793 11.6226 19.575 11.8603 19.575 12.1436C19.575 12.427 19.4793 12.6643 19.288 12.8556C19.096 13.0476 18.8583 13.1436 18.575 13.1436H7.4L12.3 18.0436C12.4833 18.227 12.5793 18.4603 12.588 18.7436C12.596 19.027 12.5 19.2603 12.3 19.4436C12.1167 19.6436 11.8833 19.7436 11.6 19.7436C11.3167 19.7436 11.075 19.6436 10.875 19.4436Z" fill="black"/>
</g>
</svg>
