<svg width="48" height="48" viewBox="0 0 48 48" fill="none" xmlns="http://www.w3.org/2000/svg">
<g clip-path="url(#clip0_28498_11368)">
<path d="M48 0H0V48H48V0Z" fill="#444DF2"/>
<path d="M38.3807 28.5218C38.8415 29.5778 39.5807 30.4898 40.1471 31.4882C40.7135 32.4866 41.0975 33.6866 40.7807 34.7906C41.0591 34.8578 41.2799 34.541 41.3855 34.2722C41.9999 32.6306 41.3375 29.9522 40.7423 28.3586C39.9839 26.3138 38.3519 24.5474 38.2655 22.3682C37.5359 24.3074 37.5359 26.6114 38.3807 28.5218Z" fill="#797EF3"/>
<path d="M37.1713 7.0752C38.4769 8.6592 39.4945 10.5984 39.4561 12.6528C39.4369 13.3728 39.2929 14.0736 39.1489 14.7744C38.8513 16.2144 38.5537 17.6448 38.2561 19.0848C38.1793 19.44 38.1121 19.7952 37.9201 20.1024C37.4785 20.8224 36.4705 21.0528 35.6833 20.7648C34.8961 20.4768 34.3105 19.7568 34.0033 18.9792C33.5233 17.7888 33.5809 16.4256 33.9361 15.1968C34.2913 13.9584 34.9249 12.8256 35.5777 11.7216C36.0673 10.896 36.5857 10.0608 37.3537 9.4848L37.1713 7.0752Z" fill="#797EF3"/>
<path d="M29.6543 48H19.3631C19.3535 48 19.3535 48 19.3439 48C17.6063 47.9136 15.8495 47.9712 14.1023 47.9904C13.7567 47.9904 13.4111 48 13.0559 48C13.1231 47.7696 13.1903 47.5488 13.2479 47.328C14.3423 43.536 14.8703 39.8592 15.0623 35.9712C15.1007 35.2224 15.1199 34.464 15.1391 33.7056C15.3983 33.7824 15.6575 33.8496 15.9263 33.9168C15.9839 33.936 16.0319 33.9456 16.0895 33.9552C16.5311 34.0608 16.9727 34.1568 17.4239 34.224C21.3407 34.896 25.3823 34.4736 29.3663 34.4256C30.9407 34.4064 30.2207 37.488 29.5967 39.8976C29.5967 39.9072 29.5871 39.9168 29.5871 39.9264C29.3087 40.9728 29.0591 41.8944 29.0207 42.3744C28.8767 44.2656 29.0207 46.224 29.6543 48Z" fill="#E8C5AA"/>
<path d="M33.1679 8.43833C32.2559 7.78553 31.1615 7.37273 29.9999 6.96953C24.8351 5.17433 18.4607 5.71194 14.4383 9.72474C12.9023 11.2511 11.7983 13.1903 11.2127 15.2831C10.5791 17.5391 10.9055 19.5359 11.0495 21.8111C11.2703 25.4207 11.8367 29.2415 14.1791 31.9967C18.1439 36.6623 24.3839 39.5903 30.4607 39.9839C32.3519 40.1087 34.4543 39.8591 36.0863 38.8415C37.0655 38.2271 37.8719 37.2863 38.2559 36.1823C38.5151 35.4335 38.3999 34.5791 38.5343 33.7919C38.7935 32.2367 39.3311 30.7487 39.5231 29.1839C39.7247 27.5327 39.6863 25.8623 39.5423 24.2111C39.4559 23.1935 39.4271 22.1471 39.1583 21.1583C38.8895 20.1599 38.3807 19.2671 38.0735 18.2687C37.4591 16.2623 36.8831 14.0639 35.9327 12.1919C35.2607 10.8767 34.3775 9.29274 33.1679 8.43833Z" fill="#F4D3B8"/>
<path d="M31.088 22.5439C31.8367 22.3693 32.2045 21.2022 31.9095 19.9372C31.6145 18.6721 30.7684 17.7881 30.0197 17.9627C29.271 18.1373 28.9032 19.3044 29.1982 20.5694C29.4932 21.8345 30.3393 22.7185 31.088 22.5439Z" fill="#1B1464"/>
<path d="M36.6826 20.1004C37.2711 19.9631 37.5619 19.052 37.3325 18.0661C37.1031 17.0802 36.4387 16.3919 35.8503 16.5292C35.2618 16.6664 34.9709 17.5775 35.2013 18.5634C35.4307 19.5493 36.0941 20.2376 36.6826 20.1004Z" fill="#1B1464"/>
<path d="M38.0044 23.9071C38.1493 24.0808 38.1791 24.3957 37.9708 24.9285C37.7749 25.4296 37.438 25.9365 37.1864 26.3032L38.0581 26.8994C38.3058 26.5375 38.709 25.9404 38.9538 25.3125C39.1871 24.7173 39.3599 23.8802 38.8146 23.2284L38.0044 23.9071ZM35.9807 23.093C36.3772 23.286 36.8917 23.3964 37.221 23.4952C37.6012 23.6085 37.8508 23.7276 38.0101 23.9128L38.8108 23.2245C38.4421 22.7954 37.9381 22.6072 37.5234 22.4834C37.0578 22.3442 36.7372 22.2866 36.4424 22.1436L35.9807 23.093ZM33.7688 20.1794C33.9608 21.4908 34.8488 22.5381 35.9788 23.092L36.4434 22.1436C35.5765 21.7183 34.9477 20.9416 34.8133 20.0258L33.7688 20.1794ZM37.1864 26.3032C37.0213 26.5442 37.0837 26.8725 37.3237 27.0367C37.5637 27.2008 37.893 27.1394 38.0572 26.8994L37.1864 26.3032ZM38.4095 23.5682L38.8146 23.2293C38.8127 23.2274 38.8117 23.2255 38.8098 23.2245L38.4095 23.5682ZM36.2111 22.6178L35.9788 23.092C35.9797 23.092 35.9797 23.093 35.9807 23.093L36.2111 22.6178ZM34.8133 20.0258C34.7711 19.7368 34.5032 19.5381 34.2143 19.5804C33.9253 19.6226 33.7266 19.8904 33.7688 20.1794L34.8133 20.0258Z" fill="#1B1464"/>
<path d="M31.7185 31.1509C33.2794 31.0376 35.1706 30.8878 36.5425 29.732L35.8618 28.9246C34.7953 29.8232 33.2689 29.9806 31.6426 30.0977L31.7185 31.1509ZM29.185 31.0817C30.0509 31.2737 30.9351 31.2075 31.7185 31.1509L31.6426 30.0977C30.8324 30.1563 30.1037 30.2043 29.4145 30.0517L29.185 31.0817ZM36.1249 31.7009C33.9629 32.5937 31.2442 31.9592 29.6938 30.2158L28.9047 30.9176C30.7527 32.995 33.9476 33.7429 36.5281 32.6773L36.1249 31.7009ZM36.5415 29.732C36.7642 29.5438 36.793 29.2107 36.6049 28.988C36.4167 28.7653 36.0836 28.7365 35.8609 28.9246L36.5415 29.732ZM29.2993 30.5662L29.4135 30.0507C29.1898 30.0008 28.9594 30.1016 28.8433 30.2984C28.7271 30.4961 28.7521 30.7457 28.9037 30.9166L29.2993 30.5662ZM36.5281 32.6763C36.7978 32.5649 36.9255 32.2558 36.8141 31.987C36.7028 31.7173 36.3937 31.5896 36.1249 31.7009L36.5281 32.6763Z" fill="#1B1464"/>
<path d="M27.5722 16.0318C26.6957 16.4331 25.8442 17.1291 25.4419 18.0948L26.4163 18.5009C26.6861 17.8529 27.2938 17.3201 28.0109 16.9927L27.5722 16.0318ZM31.0061 15.6103C29.7859 15.3665 28.7232 15.5086 27.5741 16.0318L28.0109 16.9927C28.9728 16.555 29.8109 16.4484 30.7997 16.6462L31.0061 15.6103ZM25.4419 18.0939C25.3296 18.3627 25.4573 18.6718 25.7261 18.7841C25.9949 18.8964 26.304 18.7687 26.4163 18.4999L25.4419 18.0939ZM27.792 16.5118L27.5731 16.0308C27.5731 16.0308 27.5722 16.0308 27.5722 16.0318L27.792 16.5118ZM30.7987 16.6452C31.0848 16.7028 31.3632 16.5166 31.4198 16.2315C31.4774 15.9454 31.2912 15.667 31.0061 15.6103L30.7987 16.6452Z" fill="#1B1464"/>
<path d="M34.6464 14.6494C34.8 15.1544 34.8 15.1543 34.799 15.1543C34.799 15.1543 34.799 15.1543 34.8 15.1543C34.801 15.1543 34.8038 15.1534 34.8067 15.1524C34.8134 15.1505 34.8259 15.1467 34.8422 15.1428C34.8749 15.1342 34.9238 15.1227 34.9872 15.1092C35.1139 15.0823 35.2925 15.0526 35.4941 15.0391C35.9146 15.0103 36.3552 15.0593 36.6749 15.2657L37.248 14.3787C36.6451 13.9899 35.929 13.9515 35.424 13.986C35.1629 14.0033 34.9344 14.0417 34.7722 14.0763C34.6906 14.0936 34.6243 14.1099 34.5763 14.1214C34.5523 14.1272 34.5341 14.1329 34.5197 14.1367C34.513 14.1387 34.5072 14.1406 34.5034 14.1415C34.5014 14.1425 34.4995 14.1425 34.4976 14.1435C34.4966 14.1435 34.4966 14.1435 34.4957 14.1444H34.4947C34.4928 14.1444 34.4928 14.1444 34.6464 14.6494ZM36.6739 15.2657C36.9187 15.4241 37.2461 15.354 37.4035 15.1083C37.561 14.8625 37.4918 14.5361 37.2461 14.3787L36.6739 15.2657ZM34.4928 14.1444C34.2134 14.2289 34.056 14.5236 34.1405 14.803C34.225 15.0823 34.5197 15.2398 34.799 15.1553L34.4928 14.1444Z" fill="#1B1464"/>
<path d="M29.5487 10.963C29.7215 11.1838 29.9039 11.4046 30.0863 11.6158C31.3727 13.1038 33.1007 13.0462 34.9439 13.2382C36.3167 13.3726 37.7855 13.7374 38.6303 14.8318C39.3215 15.7342 39.4367 16.9726 39.2639 18.0958C39.1967 18.5662 39.0815 19.027 39.0335 19.4974C38.8799 21.0046 39.4367 22.5406 40.4159 23.683C41.3951 24.835 42.7871 25.603 44.2463 25.9582C43.4783 25.267 42.7007 24.5662 42.1247 23.6926C41.4719 22.6942 41.1167 21.5134 41.1263 20.323C41.1359 19.1038 41.5103 17.9134 41.7599 16.723C42.3167 14.0638 42.1439 11.2798 41.3951 8.67824C40.7711 6.52784 39.6959 3.57104 37.6895 2.33264C36.0383 1.30544 34.2431 0.787043 32.2751 0.940643C30.6047 1.07504 28.9247 1.85264 27.9743 3.24464C26.3423 5.63504 27.9743 8.93744 29.5487 10.963Z" fill="#797EF3"/>
<path d="M29.0399 6.6624C28.8959 6.768 28.7519 6.864 28.6079 6.96C28.4159 7.0848 28.2239 7.2096 28.0319 7.3248C27.9071 7.4016 27.7823 7.4784 27.6575 7.5552C25.7279 8.784 23.7887 10.0128 22.0319 11.4816C20.9183 12.4128 19.8815 13.4208 18.8639 14.448C18.4031 14.9088 17.8079 15.3312 17.3951 15.8208C16.9919 16.3008 17.0015 16.8096 16.9343 17.4336C16.9247 17.5296 16.9151 17.6352 16.8959 17.7312C16.5311 20.8704 16.1663 24.0096 15.7919 27.1392C15.5231 29.4048 15.7535 31.5936 15.9071 33.7824C15.9071 33.8208 15.9167 33.8592 15.9167 33.8976C15.9935 35.1072 16.0511 36.3168 15.9839 37.5552C15.9647 37.9104 15.9359 38.2656 15.8879 38.6208C15.7343 39.9456 15.5711 41.2608 15.4175 42.5856C15.2159 44.2944 15.0047 46.0416 14.2847 47.6064C14.2271 47.7312 14.1599 47.8656 14.0927 47.9904H4.9919C4.7711 47.7984 4.5695 47.6064 4.4255 47.376C3.8591 46.4544 4.1375 44.784 4.4831 43.8432C4.8575 42.8544 5.5103 41.9904 5.9615 41.04C6.4127 40.08 6.6335 38.9088 6.1247 37.9872C5.9039 37.584 5.5679 37.2672 5.2895 36.9024C4.0511 35.2128 4.4735 32.8608 5.0783 30.8544C5.6831 28.848 6.4223 26.6784 5.6735 24.72C5.3183 23.7984 4.6559 23.0208 4.2431 22.1184C3.1199 19.6416 4.0799 16.6848 5.5967 14.4288C6.2207 13.4976 6.9407 12.6144 7.3439 11.568C7.7855 10.4256 7.8143 9.168 7.9967 7.9584C8.1791 6.7488 8.5823 5.4816 9.5519 4.7232C10.3487 4.0992 11.3663 3.9456 12.2975 3.6096C13.2479 3.264 14.0255 2.6784 14.8799 2.16C16.8671 0.960003 19.1327 0.297603 21.4559 0.259203C23.1551 0.240003 24.8543 0.528003 26.4671 1.0464C27.4847 1.3728 28.1087 1.7856 28.7039 2.3904C29.0111 2.7072 29.3183 3.0816 29.6639 3.5136C29.9231 3.84 30.1823 4.176 30.2591 4.5792C30.4127 5.4336 29.7599 6.1344 29.0399 6.6624Z" fill="#797EF3"/>
<path d="M12.9791 19.3824C12.3647 18.6528 11.5103 18.1728 10.3391 18.144C8.62069 18.1056 6.96949 19.2864 6.35509 20.8896C5.35669 23.472 7.02709 26.6304 9.28309 27.9552C11.2895 29.136 13.6415 28.4448 14.2271 26.112C14.4863 25.0752 14.3807 23.9808 14.2847 22.9248C14.1503 21.648 13.7663 20.3232 12.9791 19.3824Z" fill="#F4D3B8"/>
<path d="M11.904 23.4625C11.9741 22.9393 11.9731 22.9393 11.9731 22.9393C11.9731 22.9393 11.9731 22.9393 11.9722 22.9393H11.9712C11.9703 22.9393 11.9693 22.9393 11.9683 22.9393C11.9655 22.9393 11.9626 22.9383 11.9587 22.9383C11.9511 22.9374 11.9405 22.9364 11.928 22.9345C11.9021 22.9316 11.8666 22.9278 11.8215 22.9249C11.7322 22.9182 11.6074 22.9105 11.4595 22.9095C11.1667 22.9076 10.7635 22.9307 10.3555 23.0363C9.95138 23.1409 9.4973 23.3387 9.15938 23.7207C8.80706 24.1182 8.63138 24.6577 8.68994 25.3326L9.7421 25.2414C9.70466 24.8123 9.81698 24.5713 9.95042 24.4206C10.0983 24.2535 10.3287 24.1335 10.6205 24.0587C10.9085 23.9838 11.2128 23.9646 11.4547 23.9655C11.5738 23.9665 11.6717 23.9723 11.7399 23.9771C11.7735 23.9799 11.7994 23.9819 11.8157 23.9838C11.8243 23.9847 11.8301 23.9857 11.833 23.9857C11.8349 23.9857 11.8359 23.9857 11.8359 23.9857C11.8339 23.9857 11.8339 23.9857 11.904 23.4625ZM8.54402 21.4465C8.62274 21.9687 8.62274 21.9687 8.62274 21.9687C8.62274 21.9687 8.62466 21.9687 8.62658 21.9678C8.63042 21.9668 8.63714 21.9668 8.64578 21.9649C8.66402 21.963 8.69282 21.9591 8.73122 21.9553C8.80706 21.9476 8.91842 21.9399 9.05378 21.9371C9.32642 21.9313 9.68162 21.9486 10.032 22.0311C10.3843 22.1137 10.7021 22.2558 10.9363 22.4766C11.1591 22.6878 11.3395 23.0007 11.3789 23.5009L12.432 23.4203C12.3744 22.6734 12.0874 22.1099 11.6621 21.7086C11.2483 21.3179 10.7376 21.1115 10.2749 21.002C9.8093 20.8926 9.36002 20.8734 9.03362 20.8801C8.8685 20.883 8.73122 20.8935 8.6333 20.9022C8.58434 20.907 8.54498 20.9118 8.51714 20.9147C8.50274 20.9166 8.49218 20.9175 8.48354 20.9195C8.4797 20.9204 8.47586 20.9204 8.47298 20.9204C8.47202 20.9204 8.4701 20.9204 8.4701 20.9214H8.46914C8.46914 20.9214 8.46914 20.9214 8.46818 20.9214C8.4653 20.9243 8.4653 20.9243 8.54402 21.4465ZM8.68994 25.3326C8.7149 25.6235 8.97122 25.8385 9.2621 25.8126C9.55298 25.7876 9.76802 25.5313 9.7421 25.2404L8.68994 25.3326ZM11.904 23.4625L11.8339 23.9857C11.9914 24.0068 12.1507 23.955 12.2669 23.8455C12.3831 23.7361 12.4426 23.5806 12.4301 23.4212L11.904 23.4625ZM8.4653 20.9243C8.1773 20.9684 7.97858 21.2372 8.02274 21.5252C8.0669 21.8132 8.3357 22.0119 8.6237 21.9678L8.4653 20.9243Z" fill="#EABC97"/>
<path d="M14.2369 13.1423C14.8225 11.5007 15.8017 9.94553 16.8001 8.54393C17.7697 7.17113 19.0849 6.04793 20.5921 5.29913C22.0033 4.60793 23.6353 4.24313 25.1521 4.64633C27.6289 5.30873 29.1361 8.39993 27.8977 10.7423C27.4081 11.6735 26.4769 12.2783 25.6129 12.8639C22.8385 14.7647 20.1217 17.2031 19.4113 20.4863C18.9697 22.5119 19.3633 24.6143 19.0369 26.6495C18.7777 28.2143 18.0481 29.5391 17.5873 31.0079C17.0977 32.5247 17.3569 34.3103 17.8081 35.8079C18.3169 37.4879 19.1521 39.0335 19.9681 40.5887C20.5729 41.7407 21.1585 43.1999 20.4097 44.2655C20.7745 43.2863 20.3713 42.1631 19.7185 41.3471C19.0657 40.5311 18.1921 39.9263 17.4241 39.2159C15.6481 37.5551 14.4865 35.2607 14.1505 32.8607C14.0065 31.8623 13.8913 30.7871 13.8241 29.7695C13.7473 28.5503 14.2561 27.3407 14.3905 26.1311C14.6401 23.8463 13.5745 22.0895 13.3729 19.9679C13.1617 17.7407 13.4785 15.2735 14.2369 13.1423Z" fill="#797EF3"/>
<path d="M29.1359 39.9842C29.1359 39.4562 29.1359 39.4562 29.1359 39.4562C29.135 39.4562 29.134 39.4562 29.1311 39.4562C29.1263 39.4562 29.1187 39.4562 29.1071 39.4562C29.0851 39.4552 29.0505 39.4542 29.0035 39.4523C28.9103 39.4485 28.7702 39.4398 28.5868 39.4216C28.2211 39.387 27.6863 39.316 27.0259 39.1739C25.7039 38.8898 23.8799 38.3186 21.8908 37.1742L21.3647 38.0901C23.4643 39.2978 25.3948 39.9035 26.8041 40.2069C27.5087 40.3586 28.0847 40.4354 28.487 40.4738C28.6886 40.493 28.847 40.5026 28.9564 40.5074C29.0111 40.5102 29.0543 40.5112 29.0841 40.5122C29.0995 40.5122 29.111 40.5131 29.1196 40.5131C29.1235 40.5131 29.1273 40.5131 29.1302 40.5131C29.1311 40.5131 29.1331 40.5131 29.1331 40.5131H29.134C29.1359 40.5122 29.1359 40.5122 29.1359 39.9842ZM21.8918 37.1742C21.6393 37.0293 21.3158 37.1157 21.1708 37.3691C21.0259 37.6226 21.1123 37.9451 21.3657 38.0901L21.8918 37.1742ZM29.1359 40.5122C29.4278 40.5122 29.6639 40.276 29.6639 39.9842C29.6639 39.6923 29.4278 39.4562 29.1359 39.4562V40.5122Z" fill="#1B1464"/>
</g>
<defs>
<clipPath id="clip0_28498_11368">
<rect width="48" height="48" rx="24" fill="white"/>
</clipPath>
</defs>
</svg>
