<svg width="48" height="48" viewBox="0 0 48 48" fill="none" xmlns="http://www.w3.org/2000/svg">
<g clip-path="url(#clip0_28498_11473)">
<path d="M48 0.000976562H0V47.9999H48V0.000976562Z" fill="#444DF2"/>
<path d="M28.2383 39.9074C27.9052 42.581 27.5855 45.2977 27.479 48.0001H5.07544C5.37016 47.5479 5.7196 47.0698 6.11128 46.5486C8.03416 43.9941 9.59224 41.166 10.7318 38.1785C11.301 36.6858 11.7666 35.1517 12.119 33.5927C12.3647 32.5108 13.1846 30.1618 12.8169 29.0952C13.0271 29.7058 13.3238 30.2702 13.6876 30.7915C14.8386 32.4398 16.6636 33.6407 18.5606 34.3991C21.0575 35.3965 23.7513 35.7815 26.3356 36.5235C26.8761 36.679 27.4386 36.8672 27.8159 37.2848C28.4284 37.9645 28.3516 38.9993 28.2383 39.9074Z" fill="#444DF2"/>
<path d="M28.2383 39.9074C27.9052 42.581 27.5855 45.2977 27.479 48.0001H5.07544C5.37016 47.5479 5.7196 47.0698 6.11128 46.5486C8.03416 43.9941 9.59224 41.166 10.7318 38.1785C11.301 36.6858 11.7666 35.1517 12.119 33.5927C12.3647 32.5108 13.1846 30.1618 12.8169 29.0952C13.0271 29.7058 13.3238 30.2702 13.6876 30.7915C14.8386 32.4398 16.6636 33.6407 18.5606 34.3991C21.0575 35.3965 23.7513 35.7815 26.3356 36.5235C26.8761 36.679 27.4386 36.8672 27.8159 37.2848C28.4284 37.9645 28.3516 38.9993 28.2383 39.9074Z" fill="#EAAA7F"/>
<path d="M10.1636 17.4756C10.1329 15.3751 10.3556 13.2478 11.3261 11.3615C12.9908 8.12345 16.6426 6.11614 20.353 5.41343C24.0644 4.71073 27.8804 5.1216 31.6177 5.56319C33.8631 5.8291 37.2116 6.23421 38.4164 8.29145C40.009 11.0082 40.1636 14.9297 40.4804 17.9699C40.7972 21.0102 41.1841 24.0428 41.4874 27.0849C41.7533 29.7527 41.6506 32.5846 40.5716 35.1209C39.2823 38.1525 36.4599 40.6177 33.1133 41.4328C28.3527 42.5915 21.8516 41.0833 18.7882 37.4709C16.5389 34.8185 14.018 31.9271 12.529 28.8148C10.9978 25.6142 10.3748 22.07 10.2001 18.5623C10.1818 18.2013 10.1684 17.8384 10.1636 17.4756Z" fill="#F7C9A4"/>
<path d="M13.585 30.4583C12.9024 30.5351 12.2323 30.4698 11.6189 30.1511C10.8682 29.7614 10.345 29.052 9.864 28.3569C7.16928 24.4681 5.11008 19.7901 4.68576 15.0344C4.52352 13.2114 4.9488 11.2501 6.22944 9.94168C6.55584 9.60856 6.93408 9.31961 7.19328 8.93178C7.53504 8.42107 7.6368 7.79229 7.85568 7.21726C8.57664 5.31938 10.487 3.97925 12.3283 3.12583C20.8003 -0.800477 31.2442 -1.3899 39.2294 3.45127C39.9072 3.86214 40.5773 4.51396 41.0458 5.15235C43.0138 7.83548 41.0947 11.5784 38.6419 13.053C35.1523 15.1515 31.5197 16.0193 27.4464 15.5489C24.0269 15.1534 20.7456 14.011 17.496 12.8754C18.7661 15.9809 18.7181 19.4877 17.545 22.6115C17.0006 24.062 17.135 24.853 17.1206 26.365C17.112 27.2453 17.1466 29.3179 16.1107 29.7287C15.3072 30.0475 14.4365 30.3633 13.585 30.4583Z" fill="#1B1464"/>
<path d="M14.5325 21.1858C17.1053 22.9704 17.8982 27.4228 17.9635 30.3392C17.9664 30.4755 17.9683 30.6176 18.0288 30.7405C18.2237 31.1427 15.4771 31.2829 15.2544 31.2848C14.1706 31.2953 13.0858 31.1811 12.0278 30.943C10.8797 30.6848 10.5302 30.3824 9.84768 29.3946C9.27456 28.5652 8.82624 27.6455 8.58432 26.6654C8.19168 25.0747 8.37696 23.3083 9.27264 21.9375C9.56928 21.4834 9.94464 21.0725 10.4074 20.7903C11.6554 20.031 13.3315 20.3526 14.5325 21.1858Z" fill="#F7C9A4"/>
<path d="M16.5197 30.5322C14.3165 32.0307 11.5709 31.1456 10.7923 30.4861C9.65854 29.5251 8.9347 28.0919 8.58334 26.6663C8.1907 25.0756 8.37598 23.3093 9.27166 21.9384C9.5683 21.4844 9.94366 21.0735 10.4064 20.7913C11.6544 20.031 13.3305 20.3535 14.5325 21.1858C15.8448 22.0959 16.7433 23.579 16.943 25.164" fill="#F7C9A4"/>
<path d="M30.4586 25.1435C31.1649 25.0972 31.6743 24.0963 31.5963 22.908C31.5183 21.7197 30.8824 20.794 30.1761 20.8404C29.4698 20.8867 28.9604 21.8876 29.0384 23.0759C29.1164 24.2642 29.7523 25.1899 30.4586 25.1435Z" fill="#1B1464"/>
<path d="M37.9583 22.8413C38.6647 22.7949 39.174 21.7941 39.096 20.6058C39.018 19.4175 38.3822 18.4918 37.6759 18.5381C36.9696 18.5845 36.4602 19.5854 36.5382 20.7737C36.6162 21.9619 37.252 22.8877 37.9583 22.8413Z" fill="#1B1464"/>
<path d="M35.061 31.2954C33.9878 31.2954 32.9145 30.9776 32.207 30.7136C31.9564 30.6195 31.8287 30.3411 31.9228 30.0896C32.0169 29.8391 32.2962 29.7114 32.5468 29.8055C33.3609 30.1098 35.3846 30.7318 36.5836 29.9389C36.6796 29.8755 36.7094 29.841 36.718 29.8285C36.7209 29.7824 36.6844 29.6605 36.6681 29.6068C36.3628 28.5921 35.9769 27.5831 35.6044 26.6078C35.0303 25.1054 34.437 23.5512 34.102 21.9058C34.0482 21.6437 34.2182 21.3874 34.4802 21.3337C34.7423 21.2799 34.9986 21.4498 35.0524 21.7119C35.3721 23.2795 35.951 24.7953 36.5106 26.2622C36.8898 27.2538 37.2815 28.2801 37.5974 29.3274C37.653 29.5108 37.7452 29.817 37.6386 30.1357C37.5359 30.4439 37.293 30.632 37.1193 30.7472C36.5078 31.1504 35.7849 31.2954 35.061 31.2954Z" fill="#1B1464"/>
<path d="M25.3238 22.8191C25.0895 22.8191 24.8831 22.6482 24.8457 22.4092C24.5203 20.3327 25.8067 18.1267 27.7747 17.3885C28.0252 17.2944 28.3046 17.4211 28.3987 17.6717C28.4927 17.9222 28.366 18.2016 28.1155 18.2957C26.5622 18.8784 25.5465 20.6198 25.8038 22.2585C25.8451 22.5225 25.6646 22.7711 25.3996 22.8124C25.3737 22.8172 25.3487 22.8191 25.3238 22.8191Z" fill="#1B1464"/>
<path d="M39.3245 17.0447C39.1287 17.0447 38.9444 16.9247 38.8714 16.7308C38.7629 16.4419 38.5114 16.2009 38.1831 16.0694C37.8548 15.9379 37.5063 15.9388 37.2279 16.0713C36.9869 16.1875 36.697 16.0847 36.5818 15.8438C36.4656 15.6028 36.5684 15.3129 36.8093 15.1967C37.3316 14.9462 37.9642 14.9366 38.544 15.1689C39.1239 15.4012 39.5741 15.8457 39.7786 16.3881C39.8727 16.6387 39.7469 16.918 39.4964 17.0131C39.4397 17.0342 39.3812 17.0447 39.3245 17.0447Z" fill="#1B1464"/>
<path d="M33.0922 36.3058C31.8663 36.3058 30.6394 35.9592 29.6305 35.2709C29.4097 35.1202 29.3521 34.8188 29.5037 34.597C29.6545 34.3762 29.9559 34.3186 30.1777 34.4693C31.8097 35.5829 34.1233 35.6338 35.8033 34.5912C36.0308 34.4501 36.3293 34.5202 36.4705 34.7477C36.6116 34.9752 36.5415 35.2738 36.314 35.4149C35.3559 36.0101 34.2241 36.3058 33.0922 36.3058Z" fill="#1B1464"/>
<path d="M27.6239 42.5232C27.5942 42.5232 27.5644 42.5203 27.5337 42.5146C23.8233 41.8167 20.1004 39.5502 17.0524 36.1326C16.8739 35.933 16.8921 35.6267 17.0918 35.4482C17.2915 35.2696 17.5977 35.2879 17.7763 35.4875C20.6831 38.7457 24.2121 40.9037 27.7132 41.5613C27.9763 41.6112 28.1491 41.8637 28.1001 42.1267C28.0559 42.361 27.8524 42.5232 27.6239 42.5232Z" fill="#1B1464"/>
<path d="M11.8925 27.9766C11.6438 27.9766 11.4317 27.7865 11.4106 27.5341C11.3395 26.7123 11.6602 26.2189 11.9424 25.9491C12.456 25.4586 13.2058 25.3299 13.7501 25.3098C13.6685 25.1245 13.5494 24.97 13.391 24.8442C12.6614 24.2615 11.3606 24.4439 11.3482 24.4458C11.0842 24.4842 10.8374 24.3018 10.7981 24.0378C10.7587 23.7738 10.9402 23.5271 11.2042 23.4868C11.2742 23.4762 12.9293 23.2372 13.993 24.0829C14.5027 24.488 14.7898 25.0592 14.8445 25.7792C14.856 25.9251 14.8003 26.0682 14.6947 26.169C14.5882 26.2698 14.4422 26.3158 14.2973 26.2976C13.9747 26.2563 13.0416 26.2381 12.6115 26.6509C12.4224 26.8323 12.3456 27.0934 12.3773 27.4496C12.4003 27.7165 12.2035 27.9516 11.9366 27.9747C11.9213 27.9756 11.9069 27.9766 11.8925 27.9766Z" fill="#EAAA7F"/>
</g>
<defs>
<clipPath id="clip0_28498_11473">
<rect width="48" height="48" rx="24" fill="white"/>
</clipPath>
</defs>
</svg>
