<svg width="48" height="48" viewBox="0 0 48 48" fill="none" xmlns="http://www.w3.org/2000/svg">
<g clip-path="url(#clip0_28498_11447)">
<path d="M48 0H0V48H48V0Z" fill="#797EF3"/>
<path d="M29.7513 47.9999H12.1238C12.551 46.4341 12.8975 45.0469 12.9619 44.756C13.5235 42.1823 13.8787 39.5711 14.0207 36.9512C14.0947 35.5928 14.1119 34.2315 14.0716 32.8722C14.0438 31.9304 13.6147 30.4251 14.0419 29.5275C14.8598 27.8063 18.6623 29.8271 20.351 30.0469C23.2511 30.4251 26.2003 30.2475 29.11 30.0709C28.6675 36.0469 28.8844 42.0623 29.7513 47.9999Z" fill="#797EF3"/>
<path d="M42.0143 26.8697C42.286 28.0994 42.8083 29.2918 42.8179 30.5522C42.5567 30.6156 42.3139 30.4073 42.1343 30.2076C40.2364 28.0927 39.6335 25.1407 39.2351 22.327C38.9894 20.5894 38.3587 17.7036 39.1823 16.0582C39.6019 15.2201 41.1206 14.2457 41.9884 15.0521C43.0147 16.0073 42.1871 19.375 42.0508 20.6009C41.8195 22.6802 41.5564 24.7999 42.0143 26.8697Z" fill="#444DF2"/>
<path d="M27.0451 3.21009C26.2358 2.75025 25.3958 2.34417 24.5251 2.00241C20.807 0.545132 16.44 0.397292 12.9187 2.28369C9.82078 3.94353 7.65119 7.01457 6.48287 10.3295C5.31455 13.6443 5.05726 17.2088 5.03902 20.7224C5.01598 24.9944 5.33182 29.2635 5.8579 33.5019C6.1939 36.213 7.03294 43.1826 10.6608 43.3266C15.1142 43.5023 19.584 43.2814 23.999 42.6709C27.7593 42.1515 33.9552 45.0142 36.96 42.4319C38.7542 40.8891 38.0995 35.3451 38.8694 33.1074C39.8054 30.3886 40.5033 27.5615 40.5869 24.6872C40.6973 20.8981 39.7113 17.0821 37.7789 13.821C36.7507 12.0863 35.4672 10.5138 34.0982 9.03345C32.0217 6.78897 29.6918 4.71345 27.0451 3.21009Z" fill="#444DF2"/>
<path d="M29.7513 47.9999H12.1238C12.551 46.4341 12.8975 45.0469 12.9619 44.756C13.5235 42.1823 13.8787 39.5711 14.0207 36.9512C14.0947 35.5928 14.1119 34.2315 14.0716 32.8722C14.0438 31.9304 13.6147 30.4251 14.0419 29.5275C14.8598 27.8063 18.6623 29.8271 20.351 30.0469C23.2511 30.4251 26.2003 30.2475 29.11 30.0709C28.6675 36.0469 28.8844 42.0623 29.7513 47.9999Z" fill="#E8AE8E"/>
<path d="M14.2782 35.9222C17.2119 39.0729 21.2516 41.0707 25.5879 42.19C29.7159 43.2556 34.5764 43.3814 37.7367 40.5196C40.3921 38.1158 41.1159 34.2681 41.3886 30.6959C41.715 26.4163 41.6113 22.1155 41.4241 17.8281C41.3425 15.9638 41.2436 14.087 40.7962 12.2764C40.1194 9.53849 38.4289 5.90009 35.7524 4.68473C32.5191 3.21689 28.6455 2.83001 25.1473 3.22553C22.6158 3.51161 20.0401 3.81497 17.713 4.84889C15.6222 5.77817 12.9121 6.96377 11.7956 9.03833C10.3796 11.6687 9.57416 14.71 9.23144 17.6649C8.71112 22.1462 9.3188 26.7715 11.0612 30.9379C11.859 32.8511 12.9562 34.5033 14.2782 35.9222Z" fill="#F4C19F"/>
<path d="M11.8157 18.4274C11.2023 17.7026 10.345 17.2197 9.17474 17.1928C7.45538 17.1535 5.80898 18.3381 5.1869 19.9423C4.18562 22.5256 5.85986 25.6783 8.11682 27.0108C10.1213 28.1935 12.4743 27.5042 13.0589 25.1647C13.3181 24.1269 13.2163 23.0383 13.1117 21.9736C12.9869 20.6911 12.6029 19.3586 11.8157 18.4274Z" fill="#F4C19F"/>
<path d="M8.04757 24.8517C7.77685 24.8517 7.54644 24.6443 7.52244 24.3698C7.44468 23.4751 7.79509 22.9375 8.10229 22.6437C8.66197 22.109 9.47892 21.9698 10.0712 21.9477C9.98196 21.7451 9.8514 21.5762 9.67764 21.4379C8.88852 20.8101 7.46964 21.004 7.45524 21.0059C7.16724 21.0501 6.89749 20.8514 6.85429 20.5634C6.81013 20.2754 7.00885 20.0056 7.29685 19.9624C7.37269 19.9509 9.17557 19.6907 10.3343 20.6114C10.8892 21.053 11.2021 21.6751 11.2626 22.4594C11.2751 22.6178 11.2146 22.7743 11.0994 22.8837C10.9832 22.9931 10.8248 23.044 10.6664 23.0239C10.3151 22.9787 9.29844 22.9595 8.82996 23.4088C8.62452 23.6066 8.54101 23.8907 8.57461 24.2786C8.59957 24.5695 8.38453 24.8248 8.09461 24.8507C8.07829 24.8507 8.06293 24.8517 8.04757 24.8517Z" fill="#EAAA7F"/>
<path d="M20.4902 15.9993C20.4873 16.0032 20.4854 16.007 20.4825 16.0108C20.1657 16.4745 19.0454 16.4284 18.5616 16.4899C18.1593 16.5408 12.455 17.0457 12.4281 16.7779C12.646 19.0003 12.864 21.2236 13.0819 23.446C13.3584 26.2704 13.5936 29.304 12.1843 31.7673C12.6998 28.0108 12.024 24.0998 10.2777 20.734C9.72188 19.6617 9.05084 18.6192 8.81468 17.4345C8.61212 16.415 8.74748 15.359 8.96252 14.3424C9.50012 11.8099 10.5379 9.38493 11.999 7.24797C14.6822 3.32541 19.5513 1.32285 24.1737 0.994529C26.2281 0.848609 28.294 0.869729 30.3446 1.05789C33.2822 1.32765 36.6278 2.28381 38.567 4.65405C39.7084 6.04989 40.439 7.72797 41.1552 9.38301C41.3184 9.76029 43.5897 16.7097 43.0147 16.584C41.8454 16.3296 40.6771 16.0752 39.5078 15.8208C38.2531 15.5481 36.9974 15.2745 35.7244 15.1065C33.1238 14.7638 30.4944 14.8694 27.8889 15.0979C27.2064 15.1574 22.9507 16.1299 22.6108 15.1497C22.0483 13.5273 21.4848 11.9049 20.9222 10.2825C20.83 10.0176 20.4432 9.73533 20.3539 10.0012C20.3558 11.1158 21.0336 15.1593 20.4902 15.9993Z" fill="#444DF2"/>
<path d="M30.3676 30.1007C30.0767 30.1007 29.8406 29.8655 29.8396 29.5746C29.8386 29.2828 30.0738 29.0457 30.3647 29.0447C30.3993 29.0447 33.7727 29.0025 33.9647 27.1324C34.0406 26.3893 33.8178 26.1311 33.4137 25.6636C32.7494 24.8956 31.8402 23.8434 31.9007 20.4373C31.9055 20.1493 32.1407 19.9189 32.4287 19.9189C32.4316 19.9189 32.4354 19.9189 32.4383 19.9189C32.7302 19.9237 32.9625 20.1647 32.9567 20.4565C32.903 23.4594 33.6287 24.2985 34.2124 24.9733C34.6674 25.4994 35.1378 26.0447 35.015 27.2409C34.726 30.0517 30.5471 30.1007 30.3695 30.1017C30.3695 30.1007 30.3686 30.1007 30.3676 30.1007Z" fill="#1B1464"/>
<path d="M26.1274 25.0007C26.8972 24.9502 27.4524 23.8597 27.3674 22.565C27.2824 21.2704 26.5895 20.2618 25.8197 20.3123C25.0498 20.3628 24.4947 21.4533 24.5796 22.748C24.6646 24.0427 25.3576 25.0512 26.1274 25.0007Z" fill="#1B1464"/>
<path d="M36.7936 24.7014C37.5635 24.6508 38.1186 23.5604 38.0336 22.2657C37.9487 20.971 37.2557 19.9625 36.4859 20.013C35.7161 20.0635 35.1609 21.154 35.2459 22.4487C35.3309 23.7433 36.0238 24.7519 36.7936 24.7014Z" fill="#1B1464"/>
<path d="M39.4215 19.7771C39.3131 19.7771 39.2046 19.7444 39.1105 19.6753C36.8055 17.9905 34.7329 18.5147 34.6455 18.5377C34.3643 18.6126 34.0753 18.4465 33.9995 18.1652C33.9236 17.8849 34.0878 17.5959 34.3671 17.5182C34.4737 17.4894 36.9995 16.8241 39.7335 18.8219C39.9687 18.9937 40.0206 19.3239 39.8487 19.5601C39.7451 19.7022 39.5847 19.7771 39.4215 19.7771Z" fill="#1B1464"/>
<path d="M20.6804 20.35C20.5978 20.35 20.5134 20.3308 20.4346 20.2885C20.1764 20.1522 20.0775 19.8335 20.2138 19.5752C20.2666 19.4754 21.5598 17.1436 27.0385 17.1436C27.0865 17.1436 27.1345 17.1436 27.1834 17.1445C27.4753 17.1464 27.7095 17.3845 27.7076 17.6764C27.7057 17.9663 27.4695 18.2005 27.1796 18.2005C27.1786 18.2005 27.1767 18.2005 27.1758 18.2005C22.2913 18.165 21.1575 20.0485 21.1479 20.0677C21.0538 20.2472 20.8705 20.35 20.6804 20.35Z" fill="#1B1464"/>
<path d="M29.4894 34.58C25.3105 34.58 22.5304 31.196 22.4056 31.0424C22.2222 30.8159 22.2577 30.4828 22.4853 30.3004C22.7118 30.117 23.044 30.1525 23.2274 30.38C23.2706 30.4328 26.2033 33.9743 30.3045 33.4751C30.5944 33.4405 30.8574 33.646 30.892 33.9359C30.9275 34.2248 30.7211 34.4888 30.4312 34.5234C30.1105 34.5618 29.7957 34.58 29.4894 34.58Z" fill="#1B1464"/>
<path d="M28.8778 43.2961C22.7232 43.2961 16.439 38.5892 16.175 38.3886C15.9427 38.2129 15.8966 37.8817 16.0733 37.6494C16.249 37.417 16.5802 37.371 16.8134 37.5466C16.8758 37.5937 23.0822 42.2391 28.8787 42.2391C29.1706 42.2391 29.4067 42.4753 29.4067 42.7671C29.4067 43.059 29.1696 43.2961 28.8778 43.2961Z" fill="#1B1464"/>
</g>
<defs>
<clipPath id="clip0_28498_11447">
<rect width="48" height="48" rx="24" fill="white"/>
</clipPath>
</defs>
</svg>
