<svg width="48" height="48" viewBox="0 0 48 48" fill="none" xmlns="http://www.w3.org/2000/svg">
<g clip-path="url(#clip0_28498_11387)">
<path d="M48 0H0V48H48V0Z" fill="#ADB0D9"/>
<path d="M35.8944 13.0368C36.0768 12.3648 36.5664 11.7216 36.4416 11.04C36.3456 10.512 36.1248 9.96485 36.192 9.41765C36.24 9.01445 36.8448 7.80485 37.3728 7.94885C37.584 8.00645 37.6896 8.24645 37.7568 8.44805C38.1408 9.55205 38.448 10.4928 38.5728 11.6736C38.6976 12.864 38.7264 14.064 38.6784 15.264C38.6496 16.0032 38.5824 16.752 38.2848 17.424C38.0256 18.0192 37.584 18.5377 37.0464 18.8928C36.8928 18.5569 36.5664 18.3456 36.3264 18.0672C35.9424 17.6352 35.76 17.0688 35.6544 16.5024C35.6544 15.3024 35.5776 14.2272 35.8944 13.0368Z" fill="#444DF2"/>
<path d="M34.7809 23.9998C34.5889 23.2126 34.6657 22.387 34.7425 21.5806C34.8385 20.611 35.1265 19.603 35.7217 18.8926C36.1825 18.3454 36.8353 17.9806 37.7185 17.9614C38.3041 17.9518 39.1489 18.0958 39.4849 18.6238C39.8305 19.1806 39.9169 20.1118 39.8689 20.7358C39.8017 21.5806 39.4561 22.3582 39.1201 23.1166C38.7553 23.9518 38.2753 25.747 37.1617 25.8238C36.0001 25.9102 35.0497 25.0846 34.7809 23.9998Z" fill="#F5B18F"/>
<path d="M28.5983 48.0002H7.23828C7.31508 47.6738 7.39188 47.3474 7.46868 47.021C8.99508 40.4738 9.59028 34.1282 9.67668 27.2642C15.0815 29.261 20.7647 28.4066 26.3423 28.3202C28.4159 28.2914 27.7247 30.6434 27.7439 32.8418C27.7727 35.5874 27.8783 38.3234 28.0415 41.0498C28.1759 43.373 28.3679 45.6962 28.5983 48.0002Z" fill="#F5B18F"/>
<path d="M38.0063 15.552C37.7855 18.2976 37.4495 21.0432 37.2671 23.7984C37.1903 25.0176 37.1423 26.2272 37.1423 27.4464C37.1519 31.2096 37.6031 35.2896 35.5295 38.4288C34.0031 40.7328 31.3055 42.0864 28.5599 42.4416C26.5727 42.7008 24.5855 42.4608 22.6463 42.0288C19.6223 41.3664 16.5215 40.1568 13.9583 38.2848C12.3839 37.1328 11.0207 35.7312 10.0127 34.0416C9.04315 32.4288 8.46714 30.6144 8.16954 28.7424C8.01594 27.7536 7.93914 26.7456 7.92954 25.7376C7.91034 23.8656 8.10235 21.9936 8.37115 20.1408C8.75515 17.4912 9.12955 14.688 10.6367 12.4032C12.0479 10.272 14.1407 8.61123 16.4735 7.58403C20.3711 5.87523 24.7775 5.76003 29.0303 6.01923C30.5375 6.11523 32.0543 6.24963 33.4847 6.72963C34.9151 7.20963 36.2591 8.06403 37.0751 9.32163C38.2367 11.1168 38.1791 13.4208 38.0063 15.552Z" fill="#FEC29B"/>
<path d="M23.162 25.0043C23.9292 24.954 24.4821 23.8623 24.3971 22.5661C24.312 21.2698 23.6211 20.2598 22.8539 20.3102C22.0868 20.3605 21.5338 21.4522 21.6189 22.7484C21.704 24.0447 22.3949 25.0547 23.162 25.0043Z" fill="#1B1464"/>
<path d="M32.1972 23.747C32.9644 23.6966 33.5173 22.605 33.4322 21.3088C33.3471 20.0125 32.6562 19.0025 31.8891 19.0529C31.1219 19.1032 30.569 20.1949 30.6541 21.4911C30.7391 22.7874 31.43 23.7973 32.1972 23.747Z" fill="#1B1464"/>
<path d="M20.5842 18.3091C21.0374 18.0394 21.7602 17.7869 22.486 17.7408C23.2156 17.6947 23.8463 17.8598 24.2466 18.2918L25.0214 17.5738C24.3186 16.8154 23.3116 16.6301 22.4188 16.6867C21.5222 16.7434 20.637 17.0486 20.0438 17.4019L20.5842 18.3091ZM24.2466 18.2918C24.4454 18.5059 24.7794 18.5184 24.9926 18.3197C25.2066 18.121 25.2191 17.7869 25.0204 17.5738L24.2466 18.2918ZM20.0428 17.4029C19.7922 17.5526 19.7106 17.8762 19.8594 18.1267C20.0092 18.3773 20.3327 18.4589 20.5833 18.3101L20.0428 17.4029Z" fill="#1B1464"/>
<path d="M31.9873 17.1648C32.2436 17.6266 32.2426 17.6266 32.2426 17.6266C32.2426 17.6266 32.2436 17.6266 32.2445 17.6256C32.2465 17.6247 32.2513 17.6218 32.258 17.6189C32.2705 17.6122 32.2916 17.6016 32.3194 17.5882C32.3751 17.5613 32.4586 17.5238 32.5633 17.4826C32.7754 17.399 33.0653 17.3059 33.3869 17.2589C34.0301 17.1648 34.7252 17.2589 35.2455 17.9011L36.0653 17.2358C35.2225 16.1971 34.0839 16.0906 33.2343 16.2144C32.81 16.2768 32.4385 16.3968 32.1764 16.5005C32.0439 16.5523 31.9364 16.6013 31.8615 16.6378C31.8231 16.656 31.7933 16.6714 31.7722 16.6829C31.7617 16.6886 31.753 16.6934 31.7463 16.6963C31.7434 16.6982 31.7405 16.6992 31.7386 16.7011C31.7377 16.7021 31.7367 16.7021 31.7357 16.703C31.7357 16.703 31.7348 16.703 31.7348 16.704C31.7319 16.703 31.7309 16.703 31.9873 17.1648ZM35.2445 17.9011C35.4279 18.1277 35.761 18.1623 35.9876 17.9789C36.2141 17.7955 36.2487 17.4624 36.0653 17.2358L35.2445 17.9011ZM31.7309 16.703C31.4756 16.8442 31.3834 17.1658 31.5255 17.4211C31.6666 17.6765 31.9882 17.7687 32.2436 17.6266L31.7309 16.703Z" fill="#1B1464"/>
<path d="M22.5215 33.1663C24.1535 34.7263 26.4997 35.4972 28.7375 35.2284L28.6117 34.1801C26.6831 34.4114 24.6517 33.7423 23.2501 32.4022L22.5215 33.1663ZM28.7375 35.2284C29.0274 35.1938 29.2338 34.9308 29.1993 34.6409C29.1647 34.351 28.9017 34.1446 28.6117 34.1791L28.7375 35.2284ZM23.2511 32.4022C23.0399 32.2006 22.7058 32.2082 22.5042 32.4194C22.3026 32.6306 22.3103 32.9647 22.5215 33.1663L23.2511 32.4022Z" fill="#1B1464"/>
<path d="M37.9105 10.0513C37.1137 12.4417 33.4177 12.8545 31.3057 13.0849C28.0897 13.4401 25.2289 12.7201 22.1377 12.0001C21.7345 11.9041 16.5217 10.6273 16.5217 10.6273C16.2529 13.2961 15.6481 15.6577 14.0257 17.7985C13.3249 18.7201 13.9393 19.8721 13.8337 21.0817C13.7089 22.6273 13.6609 24.5089 13.1809 25.9873C13.1233 26.1793 12.9409 26.3425 12.7393 26.3137C12.4609 26.2753 12.3745 25.9393 12.2689 25.6801C12.0289 25.0753 11.3473 24.5281 10.6753 24.8161C10.0417 25.0945 9.72488 26.0833 9.39848 26.6305C9.09128 27.1489 8.61128 27.5905 8.43848 28.1665C8.38088 28.3585 8.36168 28.5601 8.27528 28.7425C8.18888 28.9249 8.01608 29.0881 7.81448 29.0881C7.67048 29.0881 7.53608 28.9921 7.43048 28.8961C6.38408 27.9937 6.21128 26.8033 5.85608 25.5745C5.45288 24.1345 5.28967 22.6465 5.14567 21.1681C5.05927 20.2081 4.98247 19.2385 4.85767 18.2785C4.75207 17.4433 4.52168 16.6177 4.51208 15.7729C4.47368 13.0465 5.04008 10.2817 6.37448 7.92012C8.12168 4.84812 11.6833 3.22572 14.8801 2.38092C20.1409 0.998517 25.3921 1.75692 30.5089 3.38892C32.5729 4.05132 38.8897 7.14252 37.9105 10.0513Z" fill="#444DF2"/>
<path d="M30.2112 24.6269C29.7888 24.2429 29.4893 24.025 29.2656 23.7303C29.0832 23.4884 28.9815 23.2225 29.0525 22.7895L28.0099 22.6186C27.889 23.3569 28.08 23.9117 28.4227 24.3658C28.7251 24.7661 29.1831 25.1194 29.5008 25.4084L30.2112 24.6269ZM31.1232 26.7044C31.1472 25.9124 30.7853 25.1425 30.2093 24.625L29.5037 25.4103C29.8685 25.7377 30.0816 26.2157 30.0682 26.6717L31.1232 26.7044ZM26.0976 28.5754C26.9482 29.0679 28.1194 29.3453 29.1283 29.1447C29.6429 29.0429 30.1392 28.8106 30.5136 28.3911C30.8919 27.9677 31.1031 27.3994 31.1223 26.7025L30.0663 26.6727C30.0519 27.1661 29.9088 27.482 29.7245 27.6884C29.5373 27.8986 29.2666 28.0407 28.921 28.1089C28.2115 28.25 27.2995 28.0522 26.6237 27.6605L26.0976 28.5754ZM29.0525 22.7895C29.0995 22.5015 28.9047 22.2298 28.6167 22.1828C28.3287 22.1357 28.057 22.3306 28.0099 22.6186L29.0525 22.7895ZM29.856 25.0177L29.5008 25.4084C29.5018 25.4093 29.5027 25.4103 29.5037 25.4103L29.856 25.0177ZM30.5952 26.6881L30.0672 26.6717V26.6727L30.5952 26.6881ZM26.6256 27.6615C26.3731 27.5156 26.0506 27.602 25.9037 27.8545C25.7578 28.1069 25.8442 28.4295 26.0967 28.5764L26.6256 27.6615Z" fill="#1B1464"/>
<path d="M11.1456 19.3824C10.5312 18.6528 9.67679 18.1728 8.50559 18.144C6.78719 18.1056 5.13599 19.2864 4.52159 20.8896C3.52319 23.472 5.19359 26.6304 7.44959 27.9552C9.45599 29.136 11.808 28.4448 12.3936 26.112C12.6528 25.0752 12.5472 23.9808 12.4512 22.9248C12.3168 21.648 11.9328 20.3232 11.1456 19.3824Z" fill="#FEC29B"/>
<path d="M10.0608 23.4625C10.1308 22.9393 10.1299 22.9393 10.1299 22.9393C10.1299 22.9393 10.1299 22.9393 10.1289 22.9393H10.128C10.127 22.9393 10.126 22.9393 10.1251 22.9393C10.1222 22.9393 10.1193 22.9383 10.1155 22.9383C10.1078 22.9374 10.0972 22.9364 10.0848 22.9345C10.0588 22.9316 10.0233 22.9278 9.9782 22.9249C9.88892 22.9182 9.76412 22.9105 9.61628 22.9095C9.32348 22.9076 8.92028 22.9307 8.51228 23.0363C8.10812 23.1409 7.65404 23.3387 7.31612 23.7207C6.9638 24.1182 6.78812 24.6577 6.84668 25.3326L7.89885 25.2414C7.86141 24.8123 7.97372 24.5713 8.10716 24.4206C8.255 24.2535 8.4854 24.1335 8.77724 24.0587C9.06524 23.9838 9.36956 23.9646 9.61148 23.9655C9.73052 23.9665 9.82845 23.9723 9.89661 23.9771C9.93021 23.9799 9.95612 23.9819 9.97244 23.9838C9.98108 23.9847 9.98684 23.9857 9.98972 23.9857C9.99164 23.9857 9.9926 23.9857 9.9926 23.9857C9.99068 23.9857 9.99068 23.9857 10.0608 23.4625ZM6.70076 21.4465C6.77948 21.9687 6.77948 21.9687 6.77948 21.9687C6.77948 21.9687 6.7814 21.9687 6.78332 21.9678C6.78716 21.9668 6.79388 21.9668 6.80252 21.9649C6.82076 21.963 6.84956 21.9591 6.88796 21.9553C6.9638 21.9476 7.07516 21.9399 7.21052 21.9371C7.48316 21.9313 7.83836 21.9486 8.18876 22.0311C8.54108 22.1137 8.85884 22.2558 9.09308 22.4766C9.3158 22.6878 9.49628 23.0007 9.53564 23.5009L10.5888 23.4203C10.5312 22.6734 10.2441 22.1099 9.81885 21.7086C9.40509 21.3179 8.89436 21.1115 8.43164 21.002C7.96604 20.8926 7.51677 20.8734 7.19037 20.8801C7.02525 20.883 6.88796 20.8935 6.79004 20.9022C6.74108 20.907 6.70172 20.9118 6.67388 20.9147C6.65948 20.9166 6.64892 20.9175 6.64028 20.9195C6.63644 20.9204 6.6326 20.9204 6.62972 20.9204C6.62876 20.9204 6.62685 20.9204 6.62685 20.9214H6.62588C6.62588 20.9214 6.62588 20.9214 6.62492 20.9214C6.62204 20.9243 6.62204 20.9243 6.70076 21.4465ZM6.84668 25.3326C6.87164 25.6235 7.12797 25.8385 7.41885 25.8126C7.70973 25.7876 7.92477 25.5313 7.89885 25.2404L6.84668 25.3326ZM10.0608 23.4625L9.99068 23.9857C10.1481 24.0068 10.3075 23.955 10.4236 23.8455C10.5398 23.7361 10.5993 23.5806 10.5868 23.4212L10.0608 23.4625ZM6.62204 20.9243C6.33404 20.9684 6.13532 21.2372 6.17948 21.5252C6.22364 21.8132 6.49244 22.0119 6.78044 21.9678L6.62204 20.9243Z" fill="#F4AC7D"/>
<path d="M27.48 41.857C23.5036 42.0346 18.7881 40.8125 15.4992 38.6141L14.9126 39.4915C18.4012 41.8243 23.3433 43.0982 27.527 42.911L27.48 41.857ZM15.5001 38.6141C15.2572 38.4518 14.9299 38.5171 14.7676 38.76C14.6054 39.0029 14.6707 39.3302 14.9136 39.4925L15.5001 38.6141ZM27.528 42.911C27.8188 42.8976 28.0444 42.6509 28.032 42.36C28.0195 42.0691 27.7718 41.8435 27.4809 41.856L27.528 42.911Z" fill="#1B1464"/>
</g>
<defs>
<clipPath id="clip0_28498_11387">
<rect width="48" height="48" rx="24" fill="white"/>
</clipPath>
</defs>
</svg>
