<svg width="48" height="48" viewBox="0 0 48 48" fill="none" xmlns="http://www.w3.org/2000/svg">
<g clip-path="url(#clip0_28498_11405)">
<path d="M48 0H0V48H48V0Z" fill="#ADB0D9"/>
<path d="M29.4635 47.9999H8.10156C8.1774 47.7743 8.25516 47.5496 8.331 47.325C9.85548 42.8082 10.4497 38.4354 10.5371 33.7007C15.9457 35.0773 21.626 34.4869 27.2065 34.4293C29.283 34.4082 28.5851 36.0335 28.612 37.5455C28.6446 39.4357 28.7425 41.325 28.9057 43.2085C29.044 44.8108 29.2302 46.4092 29.4635 47.9999Z" fill="#ADB0D9"/>
<path d="M29.4635 47.9999H8.10156C8.1774 47.7743 8.25516 47.5496 8.331 47.325C9.85548 42.8082 10.4497 38.4354 10.5371 33.7007C15.9457 35.0773 21.626 34.4869 27.2065 34.4293C29.283 34.4082 28.5851 36.0335 28.612 37.5455C28.6446 39.4357 28.7425 41.325 28.9057 43.2085C29.044 44.8108 29.2302 46.4092 29.4635 47.9999Z" fill="#E8AE8E"/>
<path d="M14.3136 37.5668C14.3482 37.608 14.3837 37.6493 14.4183 37.6896C14.8637 38.2138 15.312 38.7408 15.8362 39.1872C18.5693 41.5124 22.8231 41.7792 26.1898 42.4359C28.2346 42.8343 30.2813 42.9024 32.2964 42.2852C34.6196 41.5728 36.7037 40.0023 37.8711 37.8711C39.3245 35.2157 39.266 32.0228 39.17 28.9968C39.1152 27.2794 39.0605 25.5629 39.0058 23.8455C38.9712 22.7684 38.9376 21.6903 38.9924 20.6141C39.1268 17.9616 39.8199 15.241 39.2477 12.5972C38.7725 10.4026 36.937 8.11204 34.8884 7.1818C31.6551 5.71396 27.7815 5.32708 24.2832 5.7226C21.7517 6.00868 19.176 6.31204 16.849 7.34596C14.7581 8.27524 12.048 9.46084 10.9316 11.5354C9.51556 14.1658 8.71013 17.2071 8.36741 20.162C8.08421 22.6042 8.13508 25.0858 8.52196 27.5146C8.88772 29.8119 9.49924 31.9018 11.018 33.6884C12.1152 34.9815 13.2144 36.2736 14.3136 37.5668Z" fill="#F4C19F"/>
<path d="M29.5037 30.101C29.2176 30.101 28.9824 29.8726 28.9757 29.5855C28.969 29.2937 29.1994 29.0518 29.4912 29.045C30.8074 29.0143 31.3325 28.6332 32.2263 27.8114C31.2048 25.5295 30.6039 23.1084 30.4378 20.6086C30.4186 20.3177 30.6385 20.0662 30.9293 20.047C31.2183 20.0287 31.4717 20.2476 31.4909 20.5385C31.6541 22.9999 32.2944 25.4815 33.3428 27.7145C33.4407 27.9218 33.3927 28.1686 33.2247 28.325C32.0016 29.4636 31.2816 30.0598 29.5152 30.1001C29.5124 30.101 29.5085 30.101 29.5037 30.101Z" fill="#1B1464"/>
<path d="M25.2658 25.0007C26.0356 24.9502 26.5908 23.8597 26.5058 22.565C26.4208 21.2704 25.7279 20.2618 24.9581 20.3123C24.1883 20.3628 23.6331 21.4533 23.7181 22.748C23.8031 24.0427 24.496 25.0512 25.2658 25.0007Z" fill="#1B1464"/>
<path d="M35.9318 24.7009C36.7016 24.6504 37.2568 23.5599 37.1718 22.2652C37.0869 20.9706 36.3939 19.962 35.6241 20.0125C34.8543 20.063 34.2991 21.1535 34.3841 22.4482C34.4691 23.7428 35.162 24.7514 35.9318 24.7009Z" fill="#1B1464"/>
<path d="M38.3327 20.3373C38.1829 20.3373 38.0332 20.2739 37.9295 20.1501C36.069 17.9498 33.8821 17.993 33.861 17.992C33.5663 18.0026 33.3263 17.7722 33.3167 17.4803C33.3071 17.1885 33.5365 16.9456 33.8284 16.936C33.9378 16.9331 36.55 16.8813 38.7369 19.4675C38.925 19.6903 38.8972 20.0234 38.6744 20.2115C38.5736 20.296 38.4527 20.3373 38.3327 20.3373Z" fill="#1B1464"/>
<path d="M20.2406 21.2073C20.2041 21.2073 20.1676 21.2034 20.1302 21.1958C19.8451 21.1362 19.6627 20.8521 19.7222 20.567C19.7452 20.4556 20.3568 17.8127 25.7539 16.3103C26.0352 16.2326 26.326 16.3967 26.4038 16.677C26.4816 16.9583 26.3174 17.2492 26.0371 17.327C21.335 18.6364 20.76 20.7695 20.7542 20.7906C20.7014 21.0402 20.4844 21.2073 20.2406 21.2073Z" fill="#1B1464"/>
<path d="M29.613 35.5325C29.1954 35.5325 28.7615 35.4711 28.3257 35.3463C27.311 35.0554 26.4028 34.4765 25.6022 33.9658C25.3564 33.8093 25.2844 33.482 25.4409 33.2372C25.5974 32.9914 25.9238 32.9194 26.1695 33.0759C26.9452 33.5712 27.7478 34.0839 28.6146 34.3316C29.5142 34.5888 30.3762 34.5044 30.9801 34.1002C31.222 33.938 31.5503 34.0032 31.7126 34.2452C31.8748 34.4871 31.8095 34.8154 31.5676 34.9776C31.0204 35.3444 30.3426 35.5325 29.613 35.5325Z" fill="#1B1464"/>
<path d="M10.4505 29.0053C10.0847 27.3906 10.4889 25.5647 10.5686 23.9192C10.5791 23.7109 10.5974 23.4815 10.7356 23.3346C11.0159 23.036 11.4739 23.3029 11.8521 23.4277C12.5529 23.6581 13.3391 23.2876 13.8028 22.6818C14.35 21.9676 14.5084 21.0018 14.5324 20.0792C14.5459 19.557 14.5036 19.1116 14.2991 18.644C14.1753 18.3628 13.9036 17.5621 13.6022 17.4575C14.8377 17.8837 16.3372 17.8127 17.2559 16.8354C17.5305 16.5436 17.7379 16.1874 17.9145 15.8197C18.3839 14.8405 18.8457 13.102 17.9596 12.2437C18.815 13.1048 20.0371 13.7269 21.2332 13.4312C22.4534 13.1288 23.3798 11.5669 22.7923 10.388C23.4019 11.6754 24.1641 13.0981 25.4774 13.4428C26.9385 13.8268 28.5408 12.3407 28.3852 10.7452C29.0284 12.3618 30.0143 13.9765 31.558 14.5909C33.1007 15.2053 35.2156 14.2818 35.374 12.5336C35.3318 12.9925 35.1513 13.4831 35.1743 13.9391C35.2607 15.6383 36.7919 16.9458 38.0755 17.7004C39.3043 18.4223 40.7472 19.222 42.2217 18.9752C43.6166 18.7429 44.3078 17.5679 44.5132 16.1596C44.6476 15.237 44.5881 14.1935 43.9833 13.5176C43.3036 14.5871 42.0403 15.1986 40.8374 15.0421C41.5295 14.6341 42.0451 13.8037 41.9289 12.9704C41.7907 11.9692 40.822 11.5765 40.0195 11.7685C40.8182 10.7452 41.8684 9.98388 41.8089 8.46516C41.7427 6.78036 40.3852 5.06292 39.0537 4.30644C38.3596 3.91188 37.5465 3.6834 36.7804 3.87252C36.0143 4.06164 35.326 4.74516 35.2655 5.58132C35.0649 3.93972 34.0175 2.51028 32.71 1.61844C31.4025 0.726598 29.855 0.313798 28.3151 0.0987576C27.3302 -0.0394824 26.2828 -0.0922825 25.39 0.371398C24.4972 0.835078 23.8415 1.97268 24.1814 2.96724C23.0323 1.16916 20.9654 0.210118 18.9283 0.0747576C16.8912 -0.0606024 14.8713 0.534598 12.9667 1.31796C12.2419 1.61652 11.4873 1.97652 11.0515 2.66196C10.1097 4.1442 11.1417 6.117 12.2179 7.4898C11.5766 6.08052 9.84955 5.75604 8.38075 5.72436C6.84955 5.69172 5.01403 5.98644 4.37275 7.46868C3.67675 9.07572 4.87867 10.844 5.99899 12.1487C4.34299 11.4085 2.19642 12.8408 2.09754 14.7522C1.99866 16.6636 3.98394 18.3397 5.70714 17.7973C5.28954 17.2319 4.35931 17.4527 3.98971 18.0556C3.62011 18.6575 3.67194 19.4466 3.82554 20.1474C4.07418 21.2869 4.55706 22.3679 5.22906 23.2933C5.7465 24.0056 6.88891 24.5768 7.31131 23.7964C6.09019 23.9154 4.98331 24.8936 4.64731 26.1512C4.31131 27.4079 4.76923 28.8623 5.74843 29.6485C6.18331 29.998 6.74491 30.2236 7.27387 30.0872C7.80283 29.9509 8.24058 29.3615 8.10714 28.7989C7.57626 28.5618 6.94363 29.013 6.76699 29.5967C6.59035 30.1804 6.75834 30.8207 7.00506 31.3746C7.44954 32.374 8.15611 33.238 9.02298 33.8447C9.21979 33.982 9.44443 34.1116 9.67675 34.076C10.031 34.0223 10.2345 33.6239 10.3535 33.2648C10.8278 31.8383 10.774 30.4472 10.4505 29.0053Z" fill="#444DF2"/>
<path d="M11.1436 19.3874C10.5301 18.6626 9.67285 18.1797 8.50261 18.1528C6.78325 18.1134 5.13686 19.2981 4.51478 20.9022C3.5135 23.4856 5.18774 26.6382 7.4447 27.9707C9.44918 29.1534 11.8021 28.4642 12.3868 26.1246C12.646 25.0869 12.5442 23.9982 12.4396 22.9336C12.3148 21.651 11.9308 20.3186 11.1436 19.3874Z" fill="#F4C19F"/>
<path d="M7.37544 25.8117C7.10472 25.8117 6.87432 25.6043 6.85032 25.3297C6.77256 24.435 7.12297 23.8974 7.43017 23.6037C7.98985 23.0689 8.80681 22.9297 9.39913 22.9077C9.30985 22.7051 9.17929 22.5361 9.00553 22.3979C8.21641 21.7701 6.79753 21.964 6.78313 21.9659C6.49513 22.011 6.22537 21.8113 6.18217 21.5233C6.13801 21.2353 6.33673 20.9656 6.62473 20.9224C6.70057 20.9109 8.50345 20.6507 9.66217 21.5713C10.217 22.0129 10.53 22.635 10.5905 23.4193C10.603 23.5777 10.5425 23.7342 10.4273 23.8437C10.3111 23.9531 10.1527 24.004 9.99432 23.9838C9.64296 23.9387 8.62632 23.9195 8.15784 24.3688C7.9524 24.5665 7.86888 24.8507 7.90248 25.2385C7.92744 25.5294 7.7124 25.7848 7.42248 25.8107C7.40616 25.8107 7.3908 25.8117 7.37544 25.8117Z" fill="#EAAA7F"/>
<path d="M28.2662 42.9905C28.1174 42.9905 25.6387 42.9771 22.4621 42.1543C19.4861 41.3835 15.3254 39.7227 12.4089 36.1918C12.2237 35.9671 12.2553 35.634 12.48 35.4487C12.7046 35.2635 13.0377 35.2951 13.223 35.5198C15.9533 38.8251 19.8835 40.3918 22.6992 41.1252C25.7779 41.9268 28.2374 41.9345 28.2681 41.9345C28.56 41.9345 28.7961 42.1707 28.7961 42.4615C28.7961 42.7534 28.5609 42.9895 28.2691 42.9905C28.2691 42.9905 28.2681 42.9905 28.2662 42.9905Z" fill="#1B1464"/>
</g>
<defs>
<clipPath id="clip0_28498_11405">
<rect width="48" height="48" rx="24" fill="white"/>
</clipPath>
</defs>
</svg>
