<svg width="48" height="48" viewBox="0 0 48 48" fill="none" xmlns="http://www.w3.org/2000/svg">
<g clip-path="url(#clip0_28498_11429)">
<path d="M48 0H0V48H48V0Z" fill="#797EF3"/>
<path d="M36.9601 21.9262C36.6625 21.1774 36.6337 20.3422 36.6049 19.5358C36.5761 18.5566 36.7297 17.5198 37.2289 16.7422C37.6129 16.1374 38.2177 15.6862 39.0913 15.5518C39.6673 15.4654 40.5313 15.5038 40.9249 15.9742C41.3473 16.4734 41.5489 17.3854 41.5777 18.019C41.6161 18.8638 41.3761 19.6798 41.1457 20.4766C40.8865 21.3502 40.6465 23.1934 39.5617 23.4142C38.4193 23.6638 37.3633 22.963 36.9601 21.9262Z" fill="#D9A48E"/>
<path d="M33.0529 48.0002H11.6929C11.7697 47.6738 11.8465 47.3474 11.9233 47.021C13.4497 40.4738 14.0449 34.1282 14.1313 27.2642C19.5361 29.261 25.2193 28.4066 30.7969 28.3202C32.8705 28.2914 32.1793 30.6434 32.1985 32.8418C32.2273 35.5874 32.3329 38.3234 32.4961 41.0498C32.6401 43.373 32.8225 45.6962 33.0529 48.0002Z" fill="#D9A48E"/>
<path d="M38.8127 13.1712C39.3599 15.8112 39.2063 18.5952 39.3887 21.3888C39.4655 22.608 39.5807 23.8176 39.7439 25.0272C40.2527 28.752 41.2223 32.7456 39.5807 36.1248C38.3711 38.6112 35.8751 40.3008 33.1967 41.0112C31.2575 41.5296 29.2607 41.5488 27.2735 41.376C24.1919 41.1072 20.9567 40.3296 18.1727 38.8032C16.4639 37.872 14.9279 36.6528 13.6991 35.1168C12.0863 33.0816 11.6447 31.296 11.3567 28.8288C10.3871 20.544 5.42388 11.1072 14.5727 5.3952C21.2831 1.2 32.4383 2.0832 37.0751 8.9568C37.9967 10.3008 38.5151 11.712 38.8127 13.1712Z" fill="#E5B69E"/>
<path d="M25.4644 24.4318C26.2184 24.2814 26.6236 23.1268 26.3695 21.8529C26.1154 20.579 25.2983 19.6682 24.5443 19.8185C23.7904 19.9689 23.3852 21.1235 23.6393 22.3974C23.8933 23.6713 24.7105 24.5821 25.4644 24.4318Z" fill="#1B1464"/>
<path d="M34.2572 21.9923C35.0111 21.8419 35.4163 20.6873 35.1622 19.4134C34.9082 18.1395 34.091 17.2287 33.3371 17.3791C32.5831 17.5295 32.1779 18.6841 32.432 19.958C32.6861 21.2319 33.5032 22.1427 34.2572 21.9923Z" fill="#1B1464"/>
<path d="M22.0397 18.1383C22.4564 17.8129 23.1418 17.4701 23.856 17.329C24.5741 17.1879 25.224 17.2666 25.682 17.641L26.3501 16.8231C25.5504 16.1703 24.53 16.1204 23.6525 16.2932C22.7712 16.4669 21.9341 16.8817 21.3908 17.306L22.0397 18.1383ZM25.682 17.641C25.9076 17.8253 26.2407 17.7917 26.425 17.5661C26.6093 17.3405 26.5757 17.0074 26.3501 16.8231L25.682 17.641ZM21.3908 17.305C21.1604 17.4845 21.12 17.8157 21.2996 18.0461C21.4791 18.2765 21.8103 18.3169 22.0407 18.1373L21.3908 17.305Z" fill="#1B1464"/>
<path d="M30.7968 14.3614C31.1097 14.7867 31.1097 14.7867 31.1097 14.7867C31.1097 14.7867 31.1107 14.7857 31.1116 14.7857C31.1136 14.7838 31.1174 14.7809 31.1241 14.7771C31.1356 14.7684 31.1548 14.756 31.1808 14.7387C31.2326 14.7051 31.3104 14.6561 31.4092 14.6014C31.6089 14.491 31.8844 14.3604 32.1974 14.2721C32.8233 14.0955 33.5232 14.0993 34.1203 14.6667L34.848 13.9016C33.8793 12.9809 32.7369 13.0232 31.9104 13.2564C31.4976 13.3736 31.1452 13.5406 30.8985 13.6779C30.7737 13.747 30.6739 13.8084 30.6038 13.8545C30.5683 13.8776 30.5404 13.8968 30.5203 13.9102C30.5107 13.9169 30.502 13.9227 30.4963 13.9275C30.4934 13.9294 30.4905 13.9313 30.4886 13.9332C30.4876 13.9342 30.4867 13.9342 30.4857 13.9352L30.4848 13.9361C30.4838 13.9361 30.4838 13.9361 30.7968 14.3614ZM34.1193 14.6676C34.3305 14.8683 34.6646 14.8606 34.8662 14.6484C35.0668 14.4372 35.0592 14.1032 34.847 13.9016L34.1193 14.6676ZM30.4838 13.9361C30.2496 14.1089 30.1996 14.4401 30.3724 14.6744C30.5452 14.9086 30.8764 14.9585 31.1107 14.7857L30.4838 13.9361Z" fill="#1B1464"/>
<path d="M25.9066 32.615C27.7335 33.9465 30.1517 34.4092 32.3405 33.8419L32.0755 32.8195C30.1939 33.3081 28.1002 32.9068 26.5287 31.7615L25.9066 32.615ZM32.3405 33.8419C32.6227 33.7689 32.7927 33.4809 32.7187 33.1987C32.6458 32.9164 32.3578 32.7465 32.0755 32.8204L32.3405 33.8419ZM26.5287 31.7625C26.2935 31.5907 25.9623 31.6425 25.7914 31.8787C25.6205 32.1148 25.6714 32.4451 25.9075 32.6159L26.5287 31.7625Z" fill="#1B1464"/>
<path d="M31.2183 20.8789C31.1204 20.4047 31.1501 19.9113 31.1895 19.3324L30.1364 19.2613C30.0989 19.8153 30.0519 20.4546 30.1844 21.094L31.2183 20.8789ZM32.7514 23.6044C32.0026 22.8277 31.4324 21.9253 31.2183 20.8799L30.1834 21.0921C30.4493 22.3881 31.1472 23.4633 31.9911 24.3388L32.7514 23.6044ZM33.1844 26.9913C33.6682 26.3941 33.8045 25.7567 33.6634 25.1365C33.53 24.55 33.1604 24.0345 32.7533 23.6073L31.9882 24.3349C32.3396 24.7036 32.5613 25.053 32.6333 25.3708C32.6986 25.6549 32.6573 25.9641 32.3636 26.326L33.1844 26.9913ZM28.9431 27.598C29.5527 27.8514 30.3341 28.0098 31.0906 27.9628C31.8452 27.9157 32.6468 27.6556 33.1844 26.9922L32.3645 26.3269C32.0775 26.6812 31.6061 26.8722 31.0244 26.9087C30.4445 26.9452 29.8244 26.8204 29.3482 26.6226L28.9431 27.598ZM31.1895 19.3314C31.2096 19.0405 30.9898 18.789 30.698 18.7689C30.4071 18.7487 30.1556 18.9685 30.1354 19.2604L31.1895 19.3314ZM30.7008 20.9855L31.2183 20.8799V20.8789L30.7008 20.9855ZM32.3712 23.9711L32.7533 23.6073C32.7524 23.6063 32.7514 23.6053 32.7504 23.6044L32.3712 23.9711ZM29.3482 26.6226C29.0794 26.5103 28.7703 26.638 28.658 26.9077C28.5456 27.1765 28.6733 27.4857 28.9431 27.598L29.3482 26.6226Z" fill="#1B1464"/>
<path d="M33.1103 33.5039C33.1103 33.5231 33.1007 33.5423 33.1007 33.5615C33.0431 33.9359 32.8511 34.2719 32.6111 34.5599C31.7951 35.5391 30.4415 35.9903 29.1839 35.8367C27.9263 35.6831 26.7647 34.9727 25.9295 34.0127C25.5071 33.5231 25.1615 32.9567 25.0655 32.3231C25.0271 32.0639 25.0463 31.7663 25.2479 31.6031C25.3247 31.5359 25.4207 31.4975 25.5167 31.4687C26.6687 31.0943 27.8975 31.5743 29.0687 31.8719C29.7599 32.0447 30.4703 32.1599 31.1807 32.2367C32.1215 32.3423 33.2831 32.1407 33.1103 33.5039ZM39.3983 21.3887C39.2735 21.7151 39.1967 22.0511 39.1295 22.3871C38.8511 23.8655 38.9855 25.4111 38.5247 26.8607C38.1119 28.1567 37.0271 29.3279 35.9999 30.1823C35.7695 30.3743 35.5199 30.5663 35.2319 30.6719C34.1663 31.0655 33.1199 30.4703 32.0735 30.4511C31.3631 30.4319 30.6527 30.5279 29.9423 30.4895C28.4159 30.4031 26.9471 29.6735 25.4111 29.7407C23.9327 29.8079 22.7615 30.7871 21.3791 31.2191C20.4671 31.5071 19.4495 31.3439 18.6047 30.8927C17.8751 30.5087 17.0975 29.8943 16.7039 29.1551C16.2527 28.3007 16.1567 27.1967 15.8207 26.2847C15.6191 25.7279 14.5247 23.4047 14.2655 25.1039C14.1023 26.1503 14.0543 27.1775 13.6703 28.1855C13.4495 28.7711 13.1519 29.3279 12.9599 29.9231C11.6447 34.0511 14.8703 37.0079 18.1631 38.8127C20.9471 40.3295 24.1823 41.1167 27.2639 41.3855C29.2415 41.5583 31.2479 41.5295 33.1871 41.0207C35.8559 40.3103 38.3615 38.6111 39.5711 36.1343C41.2127 32.7551 40.2431 28.7615 39.7343 25.0367C39.5903 23.8175 39.4751 22.6079 39.3983 21.3887Z" fill="#1B1464"/>
<path d="M12.9216 20.4482C12.2208 19.805 11.3088 19.4402 10.1376 19.5746C8.42883 19.757 6.95043 21.149 6.54723 22.8194C5.89443 25.5074 7.96803 28.4162 10.3776 29.4434C12.5184 30.3554 14.7648 29.3666 15.0336 26.9666C15.1584 25.901 14.9088 24.8354 14.6688 23.7986C14.3808 22.541 13.824 21.2642 12.9216 20.4482Z" fill="#E5B69E"/>
<path d="M12.3743 24.6242C12.3743 24.0962 12.3743 24.0962 12.3743 24.0962C12.3743 24.0962 12.3743 24.0962 12.3734 24.0962H12.3724C12.3715 24.0962 12.3705 24.0962 12.3695 24.0962C12.3666 24.0962 12.3638 24.0962 12.3599 24.0962C12.3523 24.0962 12.3417 24.0962 12.3292 24.0971C12.3033 24.0981 12.2668 24.0991 12.2226 24.101C12.1334 24.1058 12.0086 24.1154 11.8617 24.1336C11.5708 24.1711 11.1734 24.2459 10.7826 24.4043C10.3948 24.5608 9.97145 24.8162 9.68537 25.2395C9.38777 25.6802 9.28313 26.237 9.43001 26.8984L10.461 26.669C10.3679 26.2504 10.4476 25.9979 10.5599 25.8299C10.6847 25.6456 10.8978 25.4959 11.1782 25.3826C11.4546 25.2703 11.7542 25.2107 11.9942 25.181C12.1122 25.1656 12.2111 25.1589 12.2783 25.1551C12.3119 25.1531 12.3378 25.1522 12.3551 25.1522C12.3638 25.1522 12.3695 25.1522 12.3724 25.1522C12.3743 25.1522 12.3753 25.1522 12.3753 25.1522C12.3743 25.1522 12.3743 25.1522 12.3743 24.6242ZM8.78393 23.069C8.93081 23.5759 8.93081 23.5759 8.93081 23.5759C8.93081 23.5759 8.93273 23.5759 8.93465 23.5749C8.93849 23.5739 8.94425 23.572 8.95385 23.5701C8.97209 23.5653 8.99993 23.5586 9.03737 23.5499C9.11225 23.5327 9.22169 23.5106 9.35513 23.4895C9.62585 23.4482 9.97913 23.4184 10.3382 23.4539C10.6991 23.4895 11.0313 23.5883 11.2915 23.7765C11.5391 23.9551 11.7571 24.2411 11.8598 24.7317L12.8937 24.5167C12.7411 23.7832 12.3839 23.2629 11.9106 22.9202C11.4498 22.5871 10.9171 22.4498 10.4428 22.4027C9.96761 22.3557 9.5193 22.396 9.19578 22.445C9.03258 22.4699 8.89722 22.4978 8.80122 22.5199C8.75322 22.5314 8.71481 22.541 8.68697 22.5477C8.67353 22.5515 8.66201 22.5544 8.65433 22.5563C8.65049 22.5573 8.64666 22.5583 8.64474 22.5592C8.64378 22.5592 8.64281 22.5602 8.64185 22.5602H8.64089C8.64089 22.5602 8.64089 22.5602 8.63993 22.5602C8.63705 22.5621 8.63705 22.5621 8.78393 23.069ZM9.43001 26.8984C9.49337 27.1835 9.77562 27.3621 10.0598 27.2997C10.3439 27.2373 10.5234 26.9541 10.461 26.6699L9.43001 26.8984ZM12.3743 24.6242V25.1522C12.5337 25.1522 12.6835 25.0802 12.7843 24.9573C12.8841 24.8344 12.9244 24.6722 12.8918 24.5167L12.3743 24.6242ZM8.63705 22.5621C8.35673 22.6437 8.19545 22.9365 8.27705 23.2159C8.35865 23.4962 8.65145 23.6575 8.93081 23.5759L8.63705 22.5621Z" fill="#DB9F7F"/>
<path d="M11.712 11.1265C11.0976 11.1265 11.0976 12.0865 11.712 12.0865C12.336 12.0865 12.336 11.1265 11.712 11.1265Z" fill="#DB9F7F"/>
<path d="M12.5279 9.43701C11.9135 9.43701 11.9135 10.397 12.5279 10.397C13.1423 10.397 13.1423 9.43701 12.5279 9.43701Z" fill="#DB9F7F"/>
<path d="M13.5265 11.0591C12.9121 11.0591 12.9121 12.0191 13.5265 12.0191C14.1409 12.0191 14.1409 11.0591 13.5265 11.0591Z" fill="#DB9F7F"/>
</g>
<defs>
<clipPath id="clip0_28498_11429">
<rect width="48" height="48" rx="24" fill="white"/>
</clipPath>
</defs>
</svg>
