<svg width="24" height="25" viewBox="0 0 24 25" fill="none" xmlns="http://www.w3.org/2000/svg">
<mask id="mask0_28424_10905" style="mask-type:alpha" maskUnits="userSpaceOnUse" x="0" y="0" width="24" height="25">
<rect y="0.643555" width="24" height="24" fill="#D9D9D9"/>
</mask>
<g mask="url(#mask0_28424_10905)">
<path d="M6 22.6436C5.45 22.6436 4.97933 22.4479 4.588 22.0566C4.196 21.6646 4 21.1936 4 20.6436V10.6436C4 10.0936 4.196 9.62255 4.588 9.23055C4.97933 8.83922 5.45 8.64355 6 8.64355H7V6.64355C7 5.26022 7.48767 4.08089 8.463 3.10555C9.43767 2.13089 10.6167 1.64355 12 1.64355C13.3833 1.64355 14.5627 2.13089 15.538 3.10555C16.5127 4.08089 17 5.26022 17 6.64355V8.64355H18C18.55 8.64355 19.021 8.83922 19.413 9.23055C19.8043 9.62255 20 10.0936 20 10.6436V20.6436C20 21.1936 19.8043 21.6646 19.413 22.0566C19.021 22.4479 18.55 22.6436 18 22.6436H6ZM6 20.6436H18V10.6436H6V20.6436ZM12 17.6436C12.55 17.6436 13.021 17.4479 13.413 17.0566C13.8043 16.6646 14 16.1936 14 15.6436C14 15.0936 13.8043 14.6226 13.413 14.2306C13.021 13.8392 12.55 13.6436 12 13.6436C11.45 13.6436 10.9793 13.8392 10.588 14.2306C10.196 14.6226 10 15.0936 10 15.6436C10 16.1936 10.196 16.6646 10.588 17.0566C10.9793 17.4479 11.45 17.6436 12 17.6436ZM9 8.64355H15V6.64355C15 5.81022 14.7083 5.10189 14.125 4.51855C13.5417 3.93522 12.8333 3.64355 12 3.64355C11.1667 3.64355 10.4583 3.93522 9.875 4.51855C9.29167 5.10189 9 5.81022 9 6.64355V8.64355Z" fill="#686868"/>
</g>
</svg>
