<svg width="137" height="22" viewBox="0 0 137 22" fill="none" xmlns="http://www.w3.org/2000/svg">
<g clip-path="url(#clip0_2119_22353)">
<path d="M8.33511 0.832031H2.75755C2.12627 0.832031 1.63884 0.999838 1.30322 1.33545C0.967611 1.67106 0.799805 2.1585 0.799805 2.78977V19.1549C0.799805 19.7862 0.967611 20.2736 1.30322 20.6092C1.63884 20.9448 2.12627 21.1126 2.75755 21.1126H8.33511C10.0451 21.1126 11.5554 20.8889 12.8659 20.4334C14.1764 19.9859 15.2951 19.3227 16.206 18.4597C17.117 17.5967 17.8042 16.5339 18.2756 15.2794C18.7471 14.0248 18.9788 12.5785 18.9788 10.9484C18.9788 7.68812 18.0519 5.18701 16.206 3.43703C14.3522 1.70303 11.7312 0.832031 8.33511 0.832031ZM14.6958 14.0807C14.4081 14.9757 13.9686 15.7109 13.3853 16.2942C12.802 16.8775 12.0748 17.317 11.1958 17.6207C10.3248 17.9163 9.294 18.0681 8.10338 18.0681H4.47556V3.87652H8.10338C10.4447 3.87652 12.1947 4.45985 13.3693 5.63449C14.536 6.80114 15.1273 8.5751 15.1273 10.9563C15.1273 12.147 14.9834 13.1858 14.6958 14.0807Z" fill="black"/>
<path d="M31.3087 2.15031C31.061 1.59095 30.7573 1.19941 30.4057 0.959683C30.0541 0.719959 29.6546 0.600098 29.2151 0.600098C28.7756 0.600098 28.3441 0.719959 27.9925 0.959683C27.6409 1.19941 27.3373 1.59895 27.0895 2.15031L19.4983 18.9789C19.3065 19.4184 19.2426 19.8179 19.2985 20.1695C19.3545 20.5211 19.5223 20.8088 19.8019 21.0165C20.0816 21.2243 20.4492 21.3362 20.9127 21.3362C21.4081 21.3362 21.7917 21.2083 22.0633 20.9606C22.335 20.7129 22.5907 20.3054 22.8384 19.754L24.2528 16.4139H34.1454L35.5837 19.754C35.8155 20.2894 36.0792 20.6889 36.3748 20.9446C36.6705 21.2003 37.086 21.3362 37.6294 21.3362C38.0689 21.3362 38.4285 21.2323 38.6922 21.0325C38.9638 20.8328 39.1237 20.5451 39.1796 20.1855C39.2355 19.8179 39.1636 19.4184 38.9479 18.9789L31.3087 2.15031ZM29.1512 4.82722H29.2071L32.8749 13.4892H25.5074L29.1512 4.82722Z" fill="black"/>
<path d="M53.7067 10.6444C54.5538 10.3248 55.249 9.84532 55.7923 9.19807C56.5035 8.35105 56.8551 7.32023 56.8551 6.08965C56.8551 4.99492 56.5914 4.06 56.064 3.26891C55.5366 2.48581 54.7775 1.87851 53.7787 1.455C52.7798 1.03149 51.5732 0.82373 50.1508 0.82373H43.2468C42.6155 0.82373 42.1281 0.991537 41.7925 1.32715C41.4569 1.66276 41.2891 2.1502 41.2891 2.78147V19.1466C41.2891 19.7779 41.4569 20.2653 41.7925 20.6009C42.1281 20.9365 42.6155 21.1043 43.2468 21.1043H50.4705C52.636 21.1043 54.33 20.6089 55.5446 19.626C56.7592 18.6352 57.3745 17.2448 57.3745 15.4389C57.3745 14.0565 56.983 12.9378 56.1919 12.0747C55.5686 11.3875 54.7296 10.9161 53.7067 10.6444ZM44.829 3.6205H49.5196C50.7821 3.6205 51.733 3.86822 52.3563 4.35565C52.9796 4.84309 53.2912 5.57025 53.2912 6.52915C53.2912 7.48804 52.9796 8.2152 52.3563 8.70264C51.733 9.19008 50.7901 9.43779 49.5196 9.43779H44.829V3.6205ZM52.8837 17.5564C52.2684 18.0678 51.3095 18.3155 50.007 18.3155H44.829V12.2186H50.007C51.3095 12.2186 52.2684 12.4663 52.8837 12.9697C53.499 13.4651 53.8026 14.2323 53.8026 15.2711C53.8026 16.3099 53.499 17.053 52.8837 17.5564Z" fill="black"/>
<path d="M71.8457 6.81689C71.2704 6.81689 70.8309 6.96872 70.5192 7.26438C70.2156 7.56004 70.0558 8.01551 70.0558 8.6308V14.9595C70.0558 16.0542 69.7521 16.9332 69.1368 17.5885C68.5216 18.2517 67.7385 18.5793 66.7796 18.5793C65.9006 18.5793 65.2533 18.3396 64.8538 17.8602C64.4542 17.3807 64.2465 16.6456 64.2465 15.6467V8.6308C64.2465 8.01551 64.0867 7.56004 63.775 7.26438C63.4554 6.96872 63.0159 6.81689 62.4406 6.81689C61.8652 6.81689 61.4257 6.96872 61.1141 7.26438C60.8105 7.56004 60.6506 8.01551 60.6506 8.6308V15.5908C60.6506 16.8773 60.8344 17.9481 61.21 18.8111C61.5856 19.6741 62.1529 20.3213 62.92 20.7528C63.6871 21.1843 64.654 21.4001 65.8287 21.4001C67.0033 21.4001 67.9063 21.1204 68.7213 20.569C69.3046 20.1695 69.7761 19.6501 70.1437 19.0108V19.5063C70.1437 20.0976 70.2955 20.553 70.6071 20.8727C70.9108 21.1923 71.3423 21.3441 71.9017 21.3441C73.0683 21.3441 73.6596 20.7288 73.6596 19.5063V8.6308C73.6596 8.01551 73.4998 7.56004 73.1882 7.26438C72.8685 6.96872 72.429 6.81689 71.8537 6.81689H71.8457Z" fill="black"/>
<path d="M88.7545 7.64796C87.8356 7.05665 86.7488 6.753 85.5022 6.753C84.3356 6.753 83.3048 7.04067 82.4258 7.616C81.7945 8.02353 81.3231 8.52695 80.9875 9.12626V2.414C80.9875 1.82269 80.8276 1.36721 80.516 1.06356C80.2044 0.759913 79.7569 0.600098 79.1815 0.600098C78.6062 0.600098 78.1667 0.751922 77.8551 1.06356C77.5514 1.36721 77.3916 1.82269 77.3916 2.414V19.4983C77.3916 20.0896 77.5434 20.5451 77.8551 20.8647C78.1587 21.1843 78.6062 21.3362 79.1815 21.3362C79.7569 21.3362 80.1724 21.1764 80.476 20.8647C80.7797 20.5451 80.9395 20.0896 80.9395 19.4983V18.899C81.2671 19.5382 81.7466 20.0736 82.3938 20.5051C83.2888 21.0964 84.3276 21.4001 85.5182 21.4001C86.7088 21.4001 87.8276 21.1044 88.7545 20.5051C89.6814 19.9138 90.4086 19.0588 90.928 17.9561C91.4474 16.8533 91.7031 15.5508 91.7031 14.0566C91.7031 12.5623 91.4474 11.2438 90.928 10.1571C90.4086 9.07032 89.6894 8.23129 88.7705 7.63997L88.7545 7.64796ZM87.6198 16.6056C87.3241 17.2848 86.9086 17.7963 86.3652 18.1478C85.8219 18.4994 85.2066 18.6672 84.4954 18.6672C83.4246 18.6672 82.5616 18.2757 81.9064 17.5006C81.2511 16.7255 80.9315 15.5748 80.9315 14.0646C80.9315 13.0497 81.0833 12.2027 81.379 11.5155C81.6747 10.8363 82.0902 10.3249 82.6336 9.98926C83.1689 9.65365 83.7922 9.48584 84.5034 9.48584C85.5742 9.48584 86.4372 9.86141 87.0924 10.6205C87.7477 11.3797 88.0673 12.5223 88.0673 14.0566C88.0673 15.0714 87.9155 15.9184 87.6198 16.6056Z" fill="black"/>
<path d="M106.014 7.64796C105.095 7.05665 104.009 6.753 102.762 6.753C101.595 6.753 100.565 7.04067 99.6856 7.616C99.0543 8.02353 98.5828 8.52695 98.2472 9.12626V2.414C98.2472 1.82269 98.0874 1.36721 97.7758 1.06356C97.4641 0.759913 97.0166 0.600098 96.4413 0.600098C95.866 0.600098 95.4265 0.751922 95.1148 1.06356C94.8112 1.36721 94.6514 1.82269 94.6514 2.414V19.4983C94.6514 20.0896 94.8032 20.5451 95.1148 20.8647C95.4185 21.1843 95.866 21.3362 96.4413 21.3362C97.0166 21.3362 97.4322 21.1764 97.7358 20.8647C98.0395 20.5451 98.1993 20.0896 98.1993 19.4983V18.899C98.5269 19.5382 99.0063 20.0736 99.6536 20.5051C100.549 21.0964 101.587 21.4001 102.778 21.4001C103.969 21.4001 105.087 21.1044 106.014 20.5051C106.941 19.9138 107.668 19.0588 108.188 17.9561C108.707 16.8533 108.963 15.5508 108.963 14.0566C108.963 12.5623 108.707 11.2438 108.188 10.1571C107.668 9.07032 106.949 8.23129 106.03 7.63997L106.014 7.64796ZM104.88 16.6056C104.584 17.2848 104.168 17.7963 103.625 18.1478C103.082 18.4994 102.466 18.6672 101.755 18.6672C100.684 18.6672 99.8214 18.2757 99.1662 17.5006C98.5109 16.7255 98.1913 15.5748 98.1913 14.0646C98.1913 13.0497 98.3431 12.2027 98.6388 11.5155C98.9344 10.8363 99.3499 10.3249 99.8933 9.98926C100.429 9.65365 101.052 9.48584 101.763 9.48584C102.834 9.48584 103.697 9.86141 104.352 10.6205C105.007 11.3797 105.327 12.5223 105.327 14.0566C105.327 15.0714 105.175 15.9184 104.88 16.6056Z" fill="black"/>
<path d="M118.504 18.3796C118.368 18.3956 118.232 18.4115 118.105 18.4195C117.969 18.4275 117.825 18.4355 117.673 18.4355C116.986 18.4355 116.45 18.2278 116.075 17.8042C115.699 17.3807 115.516 16.7335 115.516 15.8465V2.414C115.516 1.82269 115.356 1.36721 115.044 1.06356C114.732 0.759913 114.285 0.600098 113.71 0.600098C113.134 0.600098 112.695 0.751922 112.383 1.06356C112.079 1.36721 111.92 1.82269 111.92 2.414V16.0223C111.92 17.7883 112.319 19.1227 113.126 20.0337C113.933 20.9446 115.132 21.4001 116.722 21.4001C116.93 21.4001 117.146 21.3921 117.353 21.3681C117.561 21.3522 117.769 21.3282 117.961 21.3122C118.4 21.2563 118.72 21.0885 118.912 20.8248C119.103 20.5531 119.199 20.1855 119.199 19.7061C119.199 19.1467 119.151 18.7791 119.055 18.5953C118.96 18.4115 118.776 18.3396 118.512 18.3796H118.504Z" fill="black"/>
<path d="M132.456 17.5323C132.152 17.5004 131.793 17.6042 131.393 17.836C130.834 18.1396 130.25 18.3554 129.627 18.4832C129.004 18.6111 128.445 18.667 127.941 18.667C126.503 18.667 125.416 18.2755 124.673 17.5004C124.09 16.8851 123.746 16.0141 123.626 14.8954H132.312C132.752 14.8954 133.095 14.8075 133.335 14.6237C133.575 14.4399 133.694 14.1762 133.694 13.8326C133.694 12.7378 133.543 11.755 133.247 10.884C132.951 10.013 132.52 9.26985 131.952 8.65456C131.385 8.03927 130.706 7.56781 129.907 7.24818C129.108 6.92056 128.213 6.76074 127.214 6.76074C125.856 6.76074 124.641 7.07238 123.578 7.69566C122.515 8.31894 121.676 9.17396 121.077 10.2687C120.47 11.3634 120.174 12.634 120.174 14.0963C120.174 15.5586 120.486 16.8851 121.109 17.9798C121.732 19.0745 122.619 19.9136 123.77 20.5129C124.921 21.1042 126.295 21.4078 127.885 21.4078C128.636 21.4078 129.443 21.304 130.314 21.1042C131.185 20.9044 131.96 20.5928 132.632 20.1693C132.975 19.9615 133.223 19.7058 133.367 19.4181C133.511 19.1305 133.567 18.8508 133.527 18.5711C133.487 18.2914 133.375 18.0597 133.199 17.8679C133.015 17.6761 132.776 17.5643 132.464 17.5403L132.456 17.5323ZM125.304 9.76528C125.871 9.38971 126.559 9.20592 127.358 9.20592C128.085 9.20592 128.692 9.36574 129.188 9.67738C129.675 9.99701 130.051 10.4525 130.306 11.0438C130.522 11.5392 130.642 12.1385 130.682 12.8257H123.626C123.698 12.2824 123.818 11.779 124.01 11.3475C124.305 10.6682 124.737 10.1408 125.304 9.76528Z" fill="black"/>
</g>
<defs>
<clipPath id="clip0_2119_22353">
<rect width="135.292" height="20.8" fill="white" transform="translate(0.799805 0.600098)"/>
</clipPath>
</defs>
</svg>
