<svg width="56" height="56" viewBox="0 0 56 56" fill="none" xmlns="http://www.w3.org/2000/svg">
<g clip-path="url(#clip0_2119_22342)">
<path d="M51.8646 0H26.1477C23.8215 0 21.9692 1.85231 21.9692 4.13539V25.4154H51.8216C54.1046 25.4154 55.9569 23.5631 55.9569 21.28V4.13539C56 1.85231 54.1477 0 51.8646 0Z" fill="#92C83E"/>
<path d="M31.0584 14.7323C32.1766 14.7323 33.083 13.8259 33.083 12.7077C33.083 11.5896 32.1766 10.6831 31.0584 10.6831C29.9403 10.6831 29.0338 11.5896 29.0338 12.7077C29.0338 13.8259 29.9403 14.7323 31.0584 14.7323Z" fill="white"/>
<path d="M38.9846 14.7323C40.1027 14.7323 41.0092 13.8259 41.0092 12.7077C41.0092 11.5896 40.1027 10.6831 38.9846 10.6831C37.8664 10.6831 36.96 11.5896 36.96 12.7077C36.96 13.8259 37.8664 14.7323 38.9846 14.7323Z" fill="white"/>
<path d="M46.9108 14.7323C48.029 14.7323 48.9355 13.8259 48.9355 12.7077C48.9355 11.5896 48.029 10.6831 46.9108 10.6831C45.7927 10.6831 44.8862 11.5896 44.8862 12.7077C44.8862 13.8259 45.7927 14.7323 46.9108 14.7323Z" fill="white"/>
<path d="M4.26466 30.3263C1.98158 30.3263 0.129272 32.1786 0.129272 34.4617V51.8217C0.129272 54.1047 1.98158 55.957 4.26466 55.957H29.9816C32.2646 55.957 34.117 54.1047 34.117 51.8217V30.2832H4.26466V30.3263Z" fill="#FBB03B"/>
<path d="M9.17537 45.1879C10.2935 45.1879 11.2 44.2814 11.2 43.1633C11.2 42.0451 10.2935 41.1387 9.17537 41.1387C8.05721 41.1387 7.15076 42.0451 7.15076 43.1633C7.15076 44.2814 8.05721 45.1879 9.17537 45.1879Z" fill="white"/>
<path d="M17.1015 45.1879C18.2197 45.1879 19.1261 44.2814 19.1261 43.1633C19.1261 42.0451 18.2197 41.1387 17.1015 41.1387C15.9834 41.1387 15.0769 42.0451 15.0769 43.1633C15.0769 44.2814 15.9834 45.1879 17.1015 45.1879Z" fill="white"/>
<path d="M25.0277 45.1879C26.1458 45.1879 27.0523 44.2814 27.0523 43.1633C27.0523 42.0451 26.1458 41.1387 25.0277 41.1387C23.9095 41.1387 23.0031 42.0451 23.0031 43.1633C23.0031 44.2814 23.9095 45.1879 25.0277 45.1879Z" fill="white"/>
<path d="M17.1015 16.8863V25.4586H8.5723C3.83384 25.4586 0 21.6247 0 16.8863C0 12.1478 3.83384 8.31396 8.5723 8.31396C13.3108 8.31396 17.1015 12.1909 17.1015 16.8863Z" fill="#ED1E79"/>
<path d="M38.8984 38.8985V30.3262H47.4707C52.2092 30.3262 56.0431 34.16 56.0431 38.8985C56.0431 43.6369 52.2092 47.4708 47.4707 47.4708C42.7323 47.4708 38.8984 43.5939 38.8984 38.8985Z" fill="#3FA9F5"/>
</g>
<defs>
<clipPath id="clip0_2119_22342">
<rect width="56" height="56" fill="white"/>
</clipPath>
</defs>
</svg>
