<svg width="470" height="73" viewBox="0 0 470 73" fill="none" xmlns="http://www.w3.org/2000/svg">
<g clip-path="url(#clip0_2410_19726)">
<path d="M24.2888 1.37158H4.83007C2.62772 1.37158 0.927175 1.95245 -0.243695 3.11419C-1.41457 4.27592 -2 5.96321 -2 8.14838V64.7969C-2 66.982 -1.41457 68.6693 -0.243695 69.831C0.927175 70.9928 2.62772 71.5737 4.83007 71.5737H24.2888C30.2547 71.5737 35.5236 70.7992 40.0956 69.2225C44.6675 67.6735 48.5704 65.3777 51.7485 62.3904C54.9266 59.4031 57.3241 55.7243 58.9689 51.3816C60.6137 47.0389 61.4221 42.0324 61.4221 36.3896C61.4221 25.1042 58.1883 16.4465 51.7485 10.3889C45.2808 4.38656 36.1369 1.37158 24.2888 1.37158ZM46.4796 47.2325C45.476 50.3305 43.9427 52.8752 41.9076 54.8944C39.8725 56.9136 37.3357 58.435 34.2691 59.4861C31.2304 60.5095 27.6342 61.035 23.4804 61.035H10.8238V11.9102H23.4804C31.6486 11.9102 37.7538 13.9294 41.8519 17.9955C45.922 22.0339 47.985 28.1745 47.985 36.4173C47.985 40.5387 47.4832 44.1345 46.4796 47.2325Z" fill="white"/>
<path d="M104.438 5.93545C103.574 3.99922 102.515 2.64387 101.288 1.81405C100.061 0.984242 98.6674 0.569336 97.1341 0.569336C95.6008 0.569336 94.0954 0.984242 92.8688 1.81405C91.6422 2.64387 90.5828 4.02689 89.7186 5.93545L63.2346 64.1882C62.5656 65.7096 62.3425 67.0926 62.5377 68.3096C62.7328 69.5267 63.3183 70.5225 64.294 71.2416C65.2697 71.9608 66.5521 72.3481 68.169 72.3481C69.8974 72.3481 71.2356 71.9055 72.1834 71.048C73.1313 70.1905 74.0234 68.7799 74.8876 66.8713L79.822 55.3093H114.335L119.353 66.8713C120.161 68.7245 121.081 70.1076 122.113 70.9927C123.144 71.8778 124.594 72.3481 126.489 72.3481C128.023 72.3481 129.277 71.9885 130.197 71.297C131.145 70.6055 131.703 69.6097 131.898 68.365C132.093 67.0926 131.842 65.7096 131.089 64.1882L104.438 5.93545ZM96.9111 15.2017H97.1062L109.902 45.1855H84.1988L96.9111 15.2017Z" fill="white"/>
<path d="M182.579 35.3379C185.534 34.2315 187.959 32.5718 189.855 30.3314C192.336 27.3994 193.563 23.8312 193.563 19.5715C193.563 15.782 192.643 12.5457 190.803 9.80734C188.963 7.09662 186.315 4.99443 182.83 3.52843C179.345 2.06243 175.136 1.34326 170.173 1.34326H146.087C143.885 1.34326 142.184 1.92413 141.013 3.08587C139.842 4.2476 139.257 5.93489 139.257 8.12006V64.7685C139.257 66.9537 139.842 68.641 141.013 69.8027C142.184 70.9645 143.885 71.5453 146.087 71.5453H171.289C178.843 71.5453 184.754 69.8304 188.991 66.4282C193.228 62.9983 195.375 58.1854 195.375 51.9341C195.375 47.1489 194.009 43.2764 191.249 40.2891C189.075 37.9103 186.147 36.2783 182.579 35.3379ZM151.607 11.0244H167.971C172.376 11.0244 175.693 11.8819 177.868 13.5692C180.042 15.2564 181.129 17.7735 181.129 21.0928C181.129 24.412 180.042 26.9291 177.868 28.6164C175.693 30.3037 172.404 31.1612 167.971 31.1612H151.607V11.0244ZM179.708 59.2641C177.561 61.0344 174.216 61.8919 169.672 61.8919H151.607V40.787H169.672C174.216 40.787 177.561 41.6445 179.708 43.3871C181.854 45.102 182.914 47.7574 182.914 51.3532C182.914 54.9491 181.854 57.5215 179.708 59.2641Z" fill="white"/>
<path d="M245.862 22.0886C243.854 22.0886 242.321 22.6142 241.234 23.6376C240.174 24.661 239.617 26.2377 239.617 28.3675V50.2746C239.617 54.064 238.558 57.1067 236.411 59.3748C234.264 61.6706 231.532 62.8047 228.187 62.8047C225.12 62.8047 222.862 61.9749 221.468 60.3153C220.075 58.6557 219.35 56.1109 219.35 52.6534V28.3675C219.35 26.2377 218.792 24.661 217.705 23.6376C216.59 22.6142 215.057 22.0886 213.049 22.0886C211.042 22.0886 209.509 22.6142 208.422 23.6376C207.362 24.661 206.805 26.2377 206.805 28.3675V52.4597C206.805 56.9131 207.446 60.6195 208.756 63.6069C210.066 66.5942 212.046 68.8347 214.722 70.3283C217.398 71.822 220.771 72.5688 224.87 72.5688C228.968 72.5688 232.118 71.6007 234.961 69.6922C236.996 68.3091 238.641 66.5112 239.924 64.2984V66.0133C239.924 68.0602 240.453 69.6368 241.54 70.7433C242.6 71.8497 244.105 72.3752 246.057 72.3752C250.127 72.3752 252.19 70.2454 252.19 66.0133V28.3675C252.19 26.2377 251.632 24.661 250.545 23.6376C249.43 22.6142 247.897 22.0886 245.889 22.0886H245.862Z" fill="white"/>
<path d="M304.852 24.9658C301.646 22.9189 297.854 21.8678 293.506 21.8678C289.435 21.8678 285.839 22.8636 282.773 24.8552C280.57 26.2658 278.925 28.0084 277.755 30.083V6.84824C277.755 4.80138 277.197 3.22473 276.11 2.17364C275.022 1.12254 273.461 0.569336 271.454 0.569336C269.447 0.569336 267.914 1.09488 266.826 2.17364C265.767 3.22473 265.209 4.80138 265.209 6.84824V65.9862C265.209 68.033 265.739 69.6097 266.826 70.7161C267.886 71.8225 269.447 72.3481 271.454 72.3481C273.461 72.3481 274.911 71.7948 275.97 70.7161C277.03 69.6097 277.587 68.033 277.587 65.9862V63.9116C278.73 66.1245 280.403 67.9777 282.661 69.4714C285.783 71.5182 289.407 72.5693 293.561 72.5693C297.715 72.5693 301.618 71.5459 304.852 69.4714C308.086 67.4245 310.623 64.4648 312.435 60.6477C314.247 56.8306 315.139 52.3219 315.139 47.1494C315.139 41.9769 314.247 37.413 312.435 33.6512C310.623 29.8894 308.113 26.985 304.908 24.9381L304.852 24.9658ZM300.893 55.9731C299.862 58.3242 298.412 60.0945 296.516 61.3116C294.621 62.5286 292.474 63.1095 289.993 63.1095C286.257 63.1095 283.246 61.7541 280.96 59.0711C278.674 56.388 277.559 52.4049 277.559 47.1771C277.559 43.6642 278.089 40.7322 279.121 38.3534C280.152 36.0023 281.602 34.232 283.497 33.0703C285.365 31.9086 287.54 31.3277 290.021 31.3277C293.756 31.3277 296.767 32.6277 299.053 35.2555C301.339 37.8832 302.454 41.8386 302.454 47.1494C302.454 50.6623 301.925 53.5943 300.893 55.9731Z" fill="white"/>
<path d="M365.068 24.9658C361.862 22.9189 358.07 21.8678 353.721 21.8678C349.651 21.8678 346.055 22.8636 342.988 24.8552C340.786 26.2658 339.141 28.0084 337.97 30.083V6.84824C337.97 4.80138 337.413 3.22473 336.326 2.17364C335.238 1.12254 333.677 0.569336 331.67 0.569336C329.663 0.569336 328.129 1.09488 327.042 2.17364C325.983 3.22473 325.425 4.80138 325.425 6.84824V65.9862C325.425 68.033 325.955 69.6097 327.042 70.7161C328.102 71.8225 329.663 72.3481 331.67 72.3481C333.677 72.3481 335.127 71.7948 336.186 70.7161C337.246 69.6097 337.803 68.033 337.803 65.9862V63.9116C338.946 66.1245 340.619 67.9777 342.877 69.4714C345.999 71.5182 349.623 72.5693 353.777 72.5693C357.931 72.5693 361.834 71.5459 365.068 69.4714C368.301 67.4245 370.838 64.4648 372.65 60.6477C374.462 56.8306 375.355 52.3219 375.355 47.1494C375.355 41.9769 374.462 37.413 372.65 33.6512C370.838 29.8894 368.329 26.985 365.123 24.9381L365.068 24.9658ZM361.109 55.9731C360.077 58.3242 358.628 60.0945 356.732 61.3116C354.836 62.5286 352.69 63.1095 350.209 63.1095C346.473 63.1095 343.462 61.7541 341.176 59.0711C338.89 56.388 337.775 52.4049 337.775 47.1771C337.775 43.6642 338.305 40.7322 339.336 38.3534C340.368 36.0023 341.817 34.232 343.713 33.0703C345.581 31.9086 347.755 31.3277 350.237 31.3277C353.972 31.3277 356.983 32.6277 359.269 35.2555C361.555 37.8832 362.67 41.8386 362.67 47.1494C362.67 50.6623 362.14 53.5943 361.109 55.9731Z" fill="white"/>
<path d="M408.641 62.1137C408.167 62.169 407.693 62.2243 407.247 62.252C406.773 62.2797 406.271 62.3073 405.742 62.3073C403.344 62.3073 401.476 61.5882 400.166 60.1222C398.856 58.6562 398.215 56.4157 398.215 53.3454V6.84824C398.215 4.80138 397.657 3.22473 396.57 2.17364C395.483 1.12254 393.922 0.569336 391.914 0.569336C389.907 0.569336 388.374 1.09488 387.287 2.17364C386.227 3.22473 385.67 4.80138 385.67 6.84824V53.9539C385.67 60.0668 387.064 64.6861 389.879 67.8394C392.695 70.9927 396.877 72.5693 402.424 72.5693C403.149 72.5693 403.902 72.5417 404.627 72.4587C405.351 72.4034 406.076 72.3204 406.745 72.2651C408.279 72.0714 409.394 71.4906 410.063 70.5778C410.732 69.6373 411.066 68.365 411.066 66.7053C411.066 64.7691 410.899 63.4967 410.565 62.8605C410.23 62.2243 409.589 61.9754 408.669 62.1137H408.641Z" fill="white"/>
<path d="M457.315 59.1817C456.256 59.0711 455.001 59.4307 453.608 60.2328C451.656 61.2839 449.621 62.0307 447.447 62.4733C445.272 62.9159 443.321 63.1095 441.564 63.1095C436.546 63.1095 432.755 61.7541 430.162 59.0711C428.127 56.9412 426.928 53.9262 426.51 50.0538H456.814C458.347 50.0538 459.546 49.7495 460.382 49.1133C461.218 48.4771 461.636 47.5644 461.636 46.375C461.636 42.5855 461.107 39.1833 460.075 36.1683C459.044 33.1533 457.538 30.5809 455.559 28.451C453.58 26.3212 451.21 24.6892 448.422 23.5828C445.635 22.4487 442.512 21.8955 439.027 21.8955C434.288 21.8955 430.051 22.9743 426.343 25.1318C422.635 27.2893 419.708 30.2489 417.617 34.0384C415.499 37.8279 414.467 42.2259 414.467 47.2878C414.467 52.3496 415.554 56.9412 417.729 60.7307C419.903 64.5202 422.998 67.4245 427.012 69.499C431.026 71.5459 435.821 72.597 441.369 72.597C443.99 72.597 446.805 72.2374 449.844 71.5459C452.883 70.8544 455.587 69.7757 457.929 68.3097C459.127 67.5905 459.992 66.7053 460.493 65.7096C460.995 64.7138 461.19 63.7457 461.051 62.7776C460.912 61.8095 460.521 61.0073 459.908 60.3435C459.267 59.6796 458.43 59.2924 457.343 59.2094L457.315 59.1817ZM432.365 32.2958C434.344 30.9958 436.741 30.3596 439.529 30.3596C442.066 30.3596 444.185 30.9128 445.913 31.9916C447.614 33.098 448.924 34.6746 449.816 36.7215C450.569 38.4364 450.987 40.511 451.126 42.8897H426.51C426.761 41.0088 427.179 39.2662 427.848 37.7726C428.88 35.4214 430.385 33.5959 432.365 32.2958Z" fill="white"/>
</g>
<defs>
<clipPath id="clip0_2410_19726">
<rect width="472" height="72" fill="white" transform="translate(-2 0.569336)"/>
</clipPath>
</defs>
</svg>
