<svg width="24" height="25" viewBox="0 0 24 25" fill="none" xmlns="http://www.w3.org/2000/svg">
<mask id="mask0_28424_10856" style="mask-type:alpha" maskUnits="userSpaceOnUse" x="0" y="0" width="24" height="25">
<rect y="0.643555" width="24" height="24" fill="#D9D9D9"/>
</mask>
<g mask="url(#mask0_28424_10856)">
<path d="M4 20.6436C3.45 20.6436 2.97933 20.4479 2.588 20.0566C2.196 19.6646 2 19.1936 2 18.6436V6.64355C2 6.09355 2.196 5.62289 2.588 5.23155C2.97933 4.83955 3.45 4.64355 4 4.64355H20C20.55 4.64355 21.021 4.83955 21.413 5.23155C21.8043 5.62289 22 6.09355 22 6.64355V18.6436C22 19.1936 21.8043 19.6646 21.413 20.0566C21.021 20.4479 20.55 20.6436 20 20.6436H4ZM20 8.64355L12.525 13.3186C12.4417 13.3686 12.354 13.4059 12.262 13.4306C12.1707 13.4559 12.0833 13.4686 12 13.4686C11.9167 13.4686 11.8293 13.4559 11.738 13.4306C11.646 13.4059 11.5583 13.3686 11.475 13.3186L4 8.64355V18.6436H20V8.64355ZM12 11.6436L20 6.64355H4L12 11.6436ZM4 8.89355V7.41855V7.44355V7.43055V8.89355Z" fill="#686868"/>
</g>
</svg>
