<svg width="24" height="25" viewBox="0 0 24 25" fill="none" xmlns="http://www.w3.org/2000/svg">
<mask id="mask0_28424_10812" style="mask-type:alpha" maskUnits="userSpaceOnUse" x="0" y="0" width="24" height="25">
<rect y="0.143555" width="24" height="24" fill="#D9D9D9"/>
</mask>
<g mask="url(#mask0_28424_10812)">
<path d="M12 12.1436C10.9 12.1436 9.95833 11.7519 9.175 10.9686C8.39167 10.1852 8 9.24355 8 8.14355C8 7.04355 8.39167 6.10189 9.175 5.31855C9.95833 4.53522 10.9 4.14355 12 4.14355C13.1 4.14355 14.0417 4.53522 14.825 5.31855C15.6083 6.10189 16 7.04355 16 8.14355C16 9.24355 15.6083 10.1852 14.825 10.9686C14.0417 11.7519 13.1 12.1436 12 12.1436ZM18 20.1436H6C5.45 20.1436 4.97933 19.9479 4.588 19.5566C4.196 19.1646 4 18.6936 4 18.1436V17.3436C4 16.7769 4.146 16.2559 4.438 15.7806C4.72933 15.3059 5.11667 14.9436 5.6 14.6936C6.63333 14.1769 7.68333 13.7892 8.75 13.5306C9.81667 13.2726 10.9 13.1436 12 13.1436C13.1 13.1436 14.1833 13.2726 15.25 13.5306C16.3167 13.7892 17.3667 14.1769 18.4 14.6936C18.8833 14.9436 19.2707 15.3059 19.562 15.7806C19.854 16.2559 20 16.7769 20 17.3436V18.1436C20 18.6936 19.8043 19.1646 19.413 19.5566C19.021 19.9479 18.55 20.1436 18 20.1436ZM6 18.1436H18V17.3436C18 17.1602 17.9543 16.9936 17.863 16.8436C17.771 16.6936 17.65 16.5769 17.5 16.4936C16.6 16.0436 15.6917 15.7059 14.775 15.4806C13.8583 15.2559 12.9333 15.1436 12 15.1436C11.0667 15.1436 10.1417 15.2559 9.225 15.4806C8.30833 15.7059 7.4 16.0436 6.5 16.4936C6.35 16.5769 6.22933 16.6936 6.138 16.8436C6.046 16.9936 6 17.1602 6 17.3436V18.1436ZM12 10.1436C12.55 10.1436 13.021 9.94755 13.413 9.55555C13.8043 9.16422 14 8.69355 14 8.14355C14 7.59355 13.8043 7.12289 13.413 6.73155C13.021 6.33955 12.55 6.14355 12 6.14355C11.45 6.14355 10.9793 6.33955 10.588 6.73155C10.196 7.12289 10 7.59355 10 8.14355C10 8.69355 10.196 9.16422 10.588 9.55555C10.9793 9.94755 11.45 10.1436 12 10.1436Z" fill="#686868"/>
</g>
</svg>
