<svg width="21" height="21" viewBox="0 0 21 21" fill="none" xmlns="http://www.w3.org/2000/svg">
<path d="M2 20.7C1.45 20.7 0.979167 20.5042 0.5875 20.1125C0.195833 19.7208 0 19.25 0 18.7V4.69999C0 4.14999 0.195833 3.67915 0.5875 3.28749C0.979167 2.89582 1.45 2.69999 2 2.69999H10.925L8.925 4.69999H2V18.7H16V11.75L18 9.74999V18.7C18 19.25 17.8042 19.7208 17.4125 20.1125C17.0208 20.5042 16.55 20.7 16 20.7H2ZM13.175 3.27499L14.6 4.67499L8 11.275V12.7H9.4L16.025 6.07499L17.45 7.47499L10.825 14.1C10.6417 14.2833 10.4292 14.4292 10.1875 14.5375C9.94583 14.6458 9.69167 14.7 9.425 14.7H7C6.71667 14.7 6.47917 14.6042 6.2875 14.4125C6.09583 14.2208 6 13.9833 6 13.7V11.275C6 11.0083 6.05 10.7542 6.15 10.5125C6.25 10.2708 6.39167 10.0583 6.575 9.87499L13.175 3.27499ZM17.45 7.47499L13.175 3.27499L15.675 0.774988C16.075 0.374988 16.5542 0.174988 17.1125 0.174988C17.6708 0.174988 18.1417 0.374988 18.525 0.774988L19.925 2.19999C20.3083 2.58332 20.5 3.04999 20.5 3.59999C20.5 4.14999 20.3083 4.61665 19.925 4.99999L17.45 7.47499Z" fill="black"/>
</svg>
