<svg width="80" height="80" viewBox="0 0 80 80" fill="none" xmlns="http://www.w3.org/2000/svg">
<g filter="url(#filter0_d_693_14384)">
<rect x="10" y="4" width="60" height="60" rx="30" fill="#444DF2"/>
<mask id="mask0_693_14384" style="mask-type:alpha" maskUnits="userSpaceOnUse" x="28" y="20" width="24" height="24">
<path d="M28 20H52V44H28V20Z" fill="#D9D9D9"/>
</mask>
<g mask="url(#mask0_693_14384)">
<path d="M33 43.6998C32.45 43.6998 31.9792 43.504 31.5875 43.1123C31.1958 42.7206 31 42.2498 31 41.6998V27.6998C31 27.1498 31.1958 26.679 31.5875 26.2873C31.9792 25.8956 32.45 25.6998 33 25.6998H41.925L39.925 27.6998H33V41.6998H47V34.7498L49 32.7498V41.6998C49 42.2498 48.8042 42.7206 48.4125 43.1123C48.0208 43.504 47.55 43.6998 47 43.6998H33ZM44.175 26.2748L45.6 27.6748L39 34.2748V35.6998H40.4L47.025 29.0748L48.45 30.4748L41.825 37.0998C41.6417 37.2831 41.4292 37.429 41.1875 37.5373C40.9458 37.6456 40.6917 37.6998 40.425 37.6998H38C37.7167 37.6998 37.4792 37.604 37.2875 37.4123C37.0958 37.2206 37 36.9831 37 36.6998V34.2748C37 34.0081 37.05 33.754 37.15 33.5123C37.25 33.2706 37.3917 33.0581 37.575 32.8748L44.175 26.2748ZM48.45 30.4748L44.175 26.2748L46.675 23.7748C47.075 23.3748 47.5542 23.1748 48.1125 23.1748C48.6708 23.1748 49.1417 23.3748 49.525 23.7748L50.925 25.1998C51.3083 25.5831 51.5 26.0498 51.5 26.5998C51.5 27.1498 51.3083 27.6165 50.925 27.9998L48.45 30.4748Z" fill="white"/>
</g>
</g>
<defs>
<filter id="filter0_d_693_14384" x="0" y="0" width="80" height="80" filterUnits="userSpaceOnUse" color-interpolation-filters="sRGB">
<feFlood flood-opacity="0" result="BackgroundImageFix"/>
<feColorMatrix in="SourceAlpha" type="matrix" values="0 0 0 0 0 0 0 0 0 0 0 0 0 0 0 0 0 0 127 0" result="hardAlpha"/>
<feOffset dy="6"/>
<feGaussianBlur stdDeviation="5"/>
<feComposite in2="hardAlpha" operator="out"/>
<feColorMatrix type="matrix" values="0 0 0 0 0 0 0 0 0 0 0 0 0 0 0 0 0 0 0.2 0"/>
<feBlend mode="normal" in2="BackgroundImageFix" result="effect1_dropShadow_693_14384"/>
<feBlend mode="normal" in="SourceGraphic" in2="effect1_dropShadow_693_14384" result="shape"/>
</filter>
</defs>
</svg>
